<?xml version="1.0" standalone="yes"?>

<svg version="1.1" viewBox="0.0 0.0 530.0 362.0" fill="none" stroke="none" stroke-linecap="square" stroke-miterlimit="10" xmlns="http://www.w3.org/2000/svg" xmlns:xlink="http://www.w3.org/1999/xlink"><clipPath id="p.0"><path d="m0 0l530.0 0l0 362.0l-530.0 0l0 -362.0z" clip-rule="nonzero"></path></clipPath><g clip-path="url(#p.0)"><path fill="#000000" fill-opacity="0.0" d="m0 0l530.8425 0l0 362.68503l-530.8425 0z" fill-rule="nonzero"></path><path fill="#000000" fill-opacity="0.0" d="m103.1601 299.3386l142.50394 -246.48819l142.50392 246.48819z" fill-rule="nonzero"></path><path stroke="#999999" stroke-width="4.0" stroke-linejoin="round" stroke-linecap="butt" d="m103.1601 299.3386l142.50394 -246.48819l142.50392 246.48819z" fill-rule="nonzero"></path><path fill="#000000" fill-opacity="0.0" d="m73.79265 0l346.99213 0l0 74.67717l-346.99213 0z" fill-rule="nonzero"></path><path fill="#000000" d="m104.41547 15.69875l1.796875 0l1.453125 7.5q0.1875 1.140625 0.390625 2.234375q0.21875 1.078125 0.40625 2.21875l0.09375 0q0.21875 -1.140625 0.46875 -2.234375q0.265625 -1.109375 0.5 -2.21875l1.90625 -7.5l1.59375 0l1.90625 7.5q0.25 1.09375 0.5 2.203125q0.265625 1.109375 0.515625 2.25l0.078125 0q0.1875 -1.140625 0.375 -2.234375q0.1875 -1.109375 0.40625 -2.21875l1.453125 -7.5l1.671875 0l-2.859375 13.78125l-2.09375 0l-2.078125 -8.296875q-0.1875 -0.796875 -0.34375 -1.5625q-0.15625 -0.765625 -0.328125 -1.5625l-0.078125 0q-0.171875 0.796875 -0.359375 1.5625q-0.171875 0.765625 -0.34375 1.5625l-2.03125 8.296875l-2.078125 0l-2.921875 -13.78125zm17.248352 8.703125q0 -1.265625 0.390625 -2.265625q0.390625 -1.0 1.03125 -1.6875q0.640625 -0.6875 1.453125 -1.046875q0.8125 -0.375 1.703125 -0.375q0.96875 0 1.734375 0.34375q0.765625 0.328125 1.28125 0.953125q0.515625 0.625 0.78125 1.515625q0.28125 0.875 0.28125 1.96875q0 0.5625 -0.0625 0.953125l-6.890625 0q0.09375 1.65625 1.0 2.625q0.921875 0.953125 2.390625 0.953125q0.734375 0 1.359375 -0.21875q0.625 -0.21875 1.1875 -0.578125l0.609375 1.140625q-0.671875 0.421875 -1.5 0.734375q-0.8125 0.3125 -1.859375 0.3125q-1.03125 0 -1.921875 -0.359375q-0.890625 -0.375 -1.5625 -1.046875q-0.65625 -0.6875 -1.03125 -1.671875q-0.375 -1.0 -0.375 -2.25zm7.140625 -0.78125q0 -1.578125 -0.671875 -2.40625q-0.65625 -0.828125 -1.84375 -0.828125q-0.546875 0 -1.046875 0.21875q-0.5 0.21875 -0.90625 0.640625q-0.390625 0.40625 -0.65625 1.0q-0.25 0.59375 -0.34375 1.375l5.46875 0zm3.9225464 3.546875q0.671875 0.546875 1.375 0.890625q0.703125 0.328125 1.625 0.328125q1.0 0 1.5 -0.453125q0.515625 -0.46875 0.515625 -1.140625q0 -0.40625 -0.21875 -0.6875q-0.203125 -0.296875 -0.53125 -0.515625q-0.328125 -0.21875 -0.75 -0.390625q-0.40625 -0.171875 -0.828125 -0.34375q-0.546875 -0.1875 -1.09375 -0.421875q-0.546875 -0.25 -0.984375 -0.59375q-0.421875 -0.34375 -0.703125 -0.796875q-0.265625 -0.46875 -0.265625 -1.125q0 -0.609375 0.234375 -1.140625q0.25 -0.53125 0.703125 -0.921875q0.453125 -0.390625 1.09375 -0.609375q0.65625 -0.21875 1.46875 -0.21875q0.96875 0 1.78125 0.34375q0.8125 0.328125 1.390625 0.8125l-0.8125 1.078125q-0.53125 -0.390625 -1.09375 -0.640625q-0.5625 -0.25 -1.234375 -0.25q-0.96875 0 -1.421875 0.4375q-0.453125 0.4375 -0.453125 1.03125q0 0.359375 0.1875 0.625q0.1875 0.25 0.5 0.453125q0.328125 0.203125 0.734375 0.359375q0.40625 0.15625 0.84375 0.328125q0.546875 0.203125 1.09375 0.4375q0.5625 0.234375 1.0 0.578125q0.453125 0.34375 0.734375 0.859375q0.28125 0.5 0.28125 1.203125q0 0.640625 -0.25 1.1875q-0.234375 0.53125 -0.703125 0.953125q-0.46875 0.421875 -1.171875 0.65625q-0.703125 0.25 -1.609375 0.25q-1.09375 0 -2.078125 -0.390625q-0.984375 -0.40625 -1.71875 -1.015625l0.859375 -1.15625zm9.499023 -6.484375l-1.515625 0l0 -1.296875l1.59375 -0.109375l0.21875 -2.859375l1.453125 0l0 2.859375l2.75 0l0 1.40625l-2.75 0l0 5.671875q0 0.9375 0.34375 1.453125q0.34375 0.515625 1.21875 0.515625q0.28125 0 0.59375 -0.078125q0.3125 -0.09375 0.5625 -0.1875l0.34375 1.296875q-0.421875 0.140625 -0.921875 0.25q-0.484375 0.125 -0.96875 0.125q-0.828125 0 -1.390625 -0.25q-0.546875 -0.25 -0.890625 -0.6875q-0.34375 -0.453125 -0.5 -1.078125q-0.140625 -0.625 -0.140625 -1.390625l0 -5.640625zm6.1620636 3.71875q0 -1.265625 0.390625 -2.265625q0.390625 -1.0 1.03125 -1.6875q0.640625 -0.6875 1.453125 -1.046875q0.8125 -0.375 1.703125 -0.375q0.96875 0 1.734375 0.34375q0.765625 0.328125 1.28125 0.953125q0.515625 0.625 0.78125 1.515625q0.28125 0.875 0.28125 1.96875q0 0.5625 -0.0625 0.953125l-6.890625 0q0.09375 1.65625 1.0 2.625q0.921875 0.953125 2.390625 0.953125q0.734375 0 1.359375 -0.21875q0.625 -0.21875 1.1875 -0.578125l0.609375 1.140625q-0.671875 0.421875 -1.5 0.734375q-0.8125 0.3125 -1.859375 0.3125q-1.03125 0 -1.921875 -0.359375q-0.890625 -0.375 -1.5625 -1.046875q-0.65625 -0.6875 -1.03125 -1.671875q-0.375 -1.0 -0.375 -2.25zm7.140625 -0.78125q0 -1.578125 -0.671875 -2.40625q-0.65625 -0.828125 -1.84375 -0.828125q-0.546875 0 -1.046875 0.21875q-0.5 0.21875 -0.90625 0.640625q-0.390625 0.40625 -0.65625 1.0q-0.25 0.59375 -0.34375 1.375l5.46875 0zm4.1881714 -4.34375l1.4375 0l0.140625 1.84375l0.0625 0q0.53125 -0.96875 1.265625 -1.53125q0.75 -0.5625 1.640625 -0.5625q0.59375 0 1.078125 0.203125l-0.328125 1.515625q-0.25 -0.078125 -0.46875 -0.125q-0.203125 -0.046875 -0.515625 -0.046875q-0.65625 0 -1.359375 0.53125q-0.703125 0.515625 -1.234375 1.828125l0 6.546875l-1.71875 0l0 -10.203125zm7.400894 0l1.4375 0l0.140625 1.46875l0.0625 0q0.734375 -0.734375 1.546875 -1.21875q0.8125 -0.5 1.875 -0.5q1.625 0 2.359375 1.015625q0.75 1.0 0.75 2.96875l0 6.46875l-1.71875 0l0 -6.234375q0 -1.453125 -0.46875 -2.09375q-0.453125 -0.640625 -1.46875 -0.640625q-0.796875 0 -1.40625 0.40625q-0.609375 0.390625 -1.390625 1.171875l0 7.390625l-1.71875 0l0 -10.203125zm11.697784 -2.359375l-0.0625 -1.921875l1.84375 0l-0.0625 1.921875l-0.34375 3.515625l-1.046875 0l-0.328125 -3.515625zm5.013855 10.25q0.671875 0.546875 1.375 0.890625q0.703125 0.328125 1.625 0.328125q1.0 0 1.5 -0.453125q0.515625 -0.46875 0.515625 -1.140625q0 -0.40625 -0.21875 -0.6875q-0.203125 -0.296875 -0.53125 -0.515625q-0.328125 -0.21875 -0.75 -0.390625q-0.40625 -0.171875 -0.828125 -0.34375q-0.546875 -0.1875 -1.09375 -0.421875q-0.546875 -0.25 -0.984375 -0.59375q-0.421875 -0.34375 -0.703125 -0.796875q-0.265625 -0.46875 -0.265625 -1.125q0 -0.609375 0.234375 -1.140625q0.25 -0.53125 0.703125 -0.921875q0.453125 -0.390625 1.09375 -0.609375q0.65625 -0.21875 1.46875 -0.21875q0.96875 0 1.78125 0.34375q0.8125 0.328125 1.390625 0.8125l-0.8125 1.078125q-0.53125 -0.390625 -1.09375 -0.640625q-0.5625 -0.25 -1.234375 -0.25q-0.96875 0 -1.421875 0.4375q-0.453125 0.4375 -0.453125 1.03125q0 0.359375 0.1875 0.625q0.1875 0.25 0.5 0.453125q0.328125 0.203125 0.734375 0.359375q0.40625 0.15625 0.84375 0.328125q0.546875 0.203125 1.09375 0.4375q0.5625 0.234375 1.0 0.578125q0.453125 0.34375 0.734375 0.859375q0.28125 0.5 0.28125 1.203125q0 0.640625 -0.25 1.1875q-0.234375 0.53125 -0.703125 0.953125q-0.46875 0.421875 -1.171875 0.65625q-0.703125 0.25 -1.609375 0.25q-1.09375 0 -2.078125 -0.390625q-0.984375 -0.40625 -1.71875 -1.015625l0.859375 -1.15625zm12.885452 -4.578125q0 -1.65625 0.453125 -2.96875q0.46875 -1.328125 1.28125 -2.25q0.828125 -0.9375 1.953125 -1.421875q1.125 -0.5 2.4375 -0.5q1.265625 0 2.203125 0.515625q0.953125 0.515625 1.5625 1.1875l-0.984375 1.109375q-0.546875 -0.578125 -1.21875 -0.921875q-0.65625 -0.359375 -1.53125 -0.359375q-0.984375 0 -1.796875 0.390625q-0.796875 0.390625 -1.359375 1.125q-0.5625 0.71875 -0.890625 1.75q-0.3125 1.015625 -0.3125 2.296875q0 1.3125 0.296875 2.359375q0.3125 1.03125 0.859375 1.765625q0.546875 0.734375 1.328125 1.140625q0.796875 0.390625 1.78125 0.390625q1.015625 0 1.75 -0.390625q0.75 -0.40625 1.421875 -1.140625l0.984375 1.0625q-0.8125 0.953125 -1.84375 1.484375q-1.03125 0.515625 -2.34375 0.515625q-1.3125 0 -2.421875 -0.484375q-1.09375 -0.484375 -1.90625 -1.390625q-0.796875 -0.921875 -1.25 -2.25q-0.453125 -1.328125 -0.453125 -3.015625zm12.053406 1.8125q0 -1.28125 0.390625 -2.28125q0.390625 -1.0 1.03125 -1.6875q0.65625 -0.703125 1.5 -1.046875q0.859375 -0.359375 1.796875 -0.359375q0.953125 0 1.796875 0.359375q0.859375 0.34375 1.5 1.046875q0.65625 0.6875 1.046875 1.6875q0.390625 1.0 0.390625 2.28125q0 1.25 -0.390625 2.25q-0.390625 1.0 -1.046875 1.6875q-0.640625 0.671875 -1.5 1.03125q-0.84375 0.359375 -1.796875 0.359375q-0.9375 0 -1.796875 -0.359375q-0.84375 -0.359375 -1.5 -1.03125q-0.640625 -0.6875 -1.03125 -1.6875q-0.390625 -1.0 -0.390625 -2.25zm1.78125 0q0 0.875 0.203125 1.59375q0.21875 0.71875 0.609375 1.234375q0.390625 0.5 0.9375 0.796875q0.546875 0.28125 1.1875 0.28125q0.65625 0 1.203125 -0.28125q0.546875 -0.296875 0.9375 -0.796875q0.390625 -0.515625 0.59375 -1.234375q0.203125 -0.71875 0.203125 -1.59375q0 -0.890625 -0.203125 -1.609375q-0.203125 -0.71875 -0.59375 -1.25q-0.390625 -0.53125 -0.9375 -0.8125q-0.546875 -0.28125 -1.203125 -0.28125q-0.640625 0 -1.1875 0.28125q-0.546875 0.28125 -0.9375 0.8125q-0.390625 0.53125 -0.609375 1.25q-0.203125 0.71875 -0.203125 1.609375zm10.528641 -5.125l1.4375 0l0.140625 1.46875l0.0625 0q0.734375 -0.734375 1.546875 -1.21875q0.8125 -0.5 1.875 -0.5q1.625 0 2.359375 1.015625q0.75 1.0 0.75 2.96875l0 6.46875l-1.71875 0l0 -6.234375q0 -1.453125 -0.46875 -2.09375q-0.453125 -0.640625 -1.46875 -0.640625q-0.796875 0 -1.40625 0.40625q-0.609375 0.390625 -1.390625 1.171875l0 7.390625l-1.71875 0l0 -10.203125zm10.916534 5.125q0 -1.28125 0.390625 -2.28125q0.40625 -1.0 1.078125 -1.6875q0.671875 -0.703125 1.5625 -1.046875q0.890625 -0.359375 1.875 -0.359375q1.015625 0 1.734375 0.375q0.734375 0.359375 1.25 0.84375l-0.859375 1.109375q-0.46875 -0.40625 -0.96875 -0.65625q-0.484375 -0.25 -1.09375 -0.25q-0.6875 0 -1.28125 0.28125q-0.578125 0.28125 -1.0 0.8125q-0.421875 0.53125 -0.671875 1.25q-0.234375 0.71875 -0.234375 1.609375q0 0.875 0.234375 1.59375q0.234375 0.71875 0.640625 1.234375q0.40625 0.5 0.984375 0.796875q0.59375 0.28125 1.296875 0.28125q0.734375 0 1.328125 -0.296875q0.59375 -0.3125 1.0625 -0.734375l0.78125 1.125q-0.703125 0.609375 -1.5625 0.96875q-0.84375 0.359375 -1.765625 0.359375q-1.0 0 -1.890625 -0.359375q-0.875 -0.359375 -1.515625 -1.03125q-0.640625 -0.6875 -1.015625 -1.6875q-0.359375 -1.0 -0.359375 -2.25zm9.725662 0q0 -1.265625 0.390625 -2.265625q0.390625 -1.0 1.03125 -1.6875q0.640625 -0.6875 1.453125 -1.046875q0.8125 -0.375 1.703125 -0.375q0.96875 0 1.734375 0.34375q0.765625 0.328125 1.28125 0.953125q0.515625 0.625 0.78125 1.515625q0.28125 0.875 0.28125 1.96875q0 0.5625 -0.0625 0.953125l-6.890625 0q0.09375 1.65625 1.0 2.625q0.921875 0.953125 2.390625 0.953125q0.734375 0 1.359375 -0.21875q0.625 -0.21875 1.1875 -0.578125l0.609375 1.140625q-0.671875 0.421875 -1.5 0.734375q-0.8125 0.3125 -1.859375 0.3125q-1.03125 0 -1.921875 -0.359375q-0.890625 -0.375 -1.5625 -1.046875q-0.65625 -0.6875 -1.03125 -1.671875q-0.375 -1.0 -0.375 -2.25zm7.140625 -0.78125q0 -1.578125 -0.671875 -2.40625q-0.65625 -0.828125 -1.84375 -0.828125q-0.546875 0 -1.046875 0.21875q-0.5 0.21875 -0.90625 0.640625q-0.390625 0.40625 -0.65625 1.0q-0.25 0.59375 -0.34375 1.375l5.46875 0zm5.9069214 6.71875l0 3.453125l-1.71875 0l0 -14.515625l1.4375 0l0.140625 1.171875l0.0625 0q0.6875 -0.59375 1.5156403 -1.0q0.84375 -0.421875 1.734375 -0.421875q1.0 0 1.75 0.375q0.75 0.359375 1.25 1.046875q0.515625 0.671875 0.765625 1.625q0.265625 0.953125 0.265625 2.15625q0 1.296875 -0.359375 2.328125q-0.34375 1.015625 -0.953125 1.734375q-0.609375 0.703125 -1.40625 1.078125q-0.796875 0.359375 -1.6875 0.359375q-0.71875 0 -1.421875 -0.3125q-0.70314026 -0.3125 -1.4062653 -0.859375l0.03125 1.78125zm0 -3.125q0.703125 0.578125 1.3437653 0.828125q0.65625 0.234375 1.15625 0.234375q0.640625 0 1.171875 -0.28125q0.53125 -0.28125 0.921875 -0.796875q0.390625 -0.515625 0.609375 -1.265625q0.21875 -0.765625 0.21875 -1.703125q0 -0.84375 -0.15625 -1.53125q-0.140625 -0.6875 -0.46875 -1.1875q-0.3125 -0.5 -0.828125 -0.765625q-0.515625 -0.28125 -1.234375 -0.28125q-0.65625 0 -1.3125 0.359375q-0.65626526 0.359375 -1.4218903 1.03125l0 5.359375zm10.415298 -6.53125l-1.515625 0l0 -1.296875l1.59375 -0.109375l0.21875 -2.859375l1.453125 0l0 2.859375l2.75 0l0 1.40625l-2.75 0l0 5.671875q0 0.9375 0.34375 1.453125q0.34375 0.515625 1.21875 0.515625q0.28125 0 0.59375 -0.078125q0.3125 -0.09375 0.5625 -0.1875l0.34375 1.296875q-0.421875 0.140625 -0.921875 0.25q-0.484375 0.125 -0.96875 0.125q-0.828125 0 -1.390625 -0.25q-0.546875 -0.25 -0.890625 -0.6875q-0.34375 -0.453125 -0.5 -1.078125q-0.140625 -0.625 -0.140625 -1.390625l0 -5.640625zm10.470367 3.71875q0 -1.28125 0.390625 -2.28125q0.390625 -1.0 1.03125 -1.6875q0.65625 -0.703125 1.5 -1.046875q0.859375 -0.359375 1.796875 -0.359375q0.953125 0 1.796875 0.359375q0.859375 0.34375 1.5 1.046875q0.65625 0.6875 1.046875 1.6875q0.390625 1.0 0.390625 2.28125q0 1.25 -0.390625 2.25q-0.390625 1.0 -1.046875 1.6875q-0.640625 0.671875 -1.5 1.03125q-0.84375 0.359375 -1.796875 0.359375q-0.9375 0 -1.796875 -0.359375q-0.84375 -0.359375 -1.5 -1.03125q-0.640625 -0.6875 -1.03125 -1.6875q-0.390625 -1.0 -0.390625 -2.25zm1.78125 0q0 0.875 0.203125 1.59375q0.21875 0.71875 0.609375 1.234375q0.390625 0.5 0.9375 0.796875q0.546875 0.28125 1.1875 0.28125q0.65625 0 1.203125 -0.28125q0.546875 -0.296875 0.9375 -0.796875q0.390625 -0.515625 0.59375 -1.234375q0.203125 -0.71875 0.203125 -1.59375q0 -0.890625 -0.203125 -1.609375q-0.203125 -0.71875 -0.59375 -1.25q-0.390625 -0.53125 -0.9375 -0.8125q-0.546875 -0.28125 -1.203125 -0.28125q-0.640625 0 -1.1875 0.28125q-0.546875 0.28125 -0.9375 0.8125q-0.390625 0.53125 -0.609375 1.25q-0.203125 0.71875 -0.203125 1.609375zm15.1380005 -8.46875q-0.578125 -0.25 -1.15625 -0.25q-1.4375 0 -1.4375 1.96875l0 1.625l2.171875 0l0 1.40625l-2.171875 0l0 8.796875l-1.71875 0l0 -8.796875l-1.390625 0l0 -1.296875l1.390625 -0.109375l0 -1.625q0 -1.5625 0.71875 -2.46875q0.734375 -0.90625 2.265625 -0.90625q0.484375 0 0.90625 0.09375q0.4375 0.09375 0.796875 0.234375l-0.375 1.328125zm6.0986633 -0.234375l1.75 0l0 5.78125l6.390625 0l0 -5.78125l1.765625 0l0 13.78125l-1.765625 0l0 -6.484375l-6.390625 0l0 6.484375l-1.75 0l0 -13.78125zm13.2341 11.140625q0 -1.6875 1.5 -2.578125q1.5 -0.890625 4.78125 -1.25q0 -0.484375 -0.09375 -0.9375q-0.09375 -0.46875 -0.34375 -0.828125q-0.234375 -0.359375 -0.640625 -0.578125q-0.390625 -0.21875 -1.03125 -0.21875q-0.890625 0 -1.65625 0.34375q-0.765625 0.328125 -1.375 0.75l-0.703125 -1.203125q0.71875 -0.453125 1.75 -0.875q1.03125 -0.4375 2.265625 -0.4375q1.859375 0 2.703125 1.140625q0.84375 1.140625 0.84375 3.046875l0 6.265625l-1.421875 0l-0.15625 -1.21875l-0.03125 0q-0.75 0.609375 -1.59375 1.046875q-0.84375 0.421875 -1.796875 0.421875q-1.296875 0 -2.15625 -0.75q-0.84375 -0.765625 -0.84375 -2.140625zm1.703125 -0.125q0 0.875 0.515625 1.25q0.515625 0.375 1.265625 0.375q0.734375 0 1.390625 -0.34375q0.671875 -0.34375 1.40625 -1.015625l0 -2.828125q-1.28125 0.15625 -2.171875 0.390625q-0.875 0.234375 -1.421875 0.546875q-0.53125 0.3125 -0.765625 0.734375q-0.21875 0.40625 -0.21875 0.890625zm11.435669 3.625l0 3.453125l-1.71875 0l0 -14.515625l1.4375 0l0.140625 1.171875l0.0625 0q0.6875 -0.59375 1.515625 -1.0q0.84375 -0.421875 1.734375 -0.421875q1.0 0 1.75 0.375q0.75 0.359375 1.25 1.046875q0.515625 0.671875 0.765625 1.625q0.265625 0.953125 0.265625 2.15625q0 1.296875 -0.359375 2.328125q-0.34375 1.015625 -0.953125 1.734375q-0.609375 0.703125 -1.40625 1.078125q-0.796875 0.359375 -1.6875 0.359375q-0.71875 0 -1.421875 -0.3125q-0.703125 -0.3125 -1.40625 -0.859375l0.03125 1.78125zm0 -3.125q0.703125 0.578125 1.34375 0.828125q0.65625 0.234375 1.15625 0.234375q0.640625 0 1.171875 -0.28125q0.53125 -0.28125 0.921875 -0.796875q0.390625 -0.515625 0.609375 -1.265625q0.21875 -0.765625 0.21875 -1.703125q0 -0.84375 -0.15625 -1.53125q-0.140625 -0.6875 -0.46875 -1.1875q-0.3125 -0.5 -0.828125 -0.765625q-0.515625 -0.28125 -1.234375 -0.28125q-0.65625 0 -1.3125 0.359375q-0.65625 0.359375 -1.421875 1.03125l0 5.359375zm11.837158 3.125l0 3.453125l-1.71875 0l0 -14.515625l1.4375 0l0.140625 1.171875l0.0625 0q0.6875 -0.59375 1.515625 -1.0q0.84375 -0.421875 1.734375 -0.421875q1.0 0 1.75 0.375q0.75 0.359375 1.25 1.046875q0.515625 0.671875 0.765625 1.625q0.265625 0.953125 0.265625 2.15625q0 1.296875 -0.359375 2.328125q-0.34375 1.015625 -0.953125 1.734375q-0.609375 0.703125 -1.40625 1.078125q-0.796875 0.359375 -1.6875 0.359375q-0.71875 0 -1.421875 -0.3125q-0.703125 -0.3125 -1.40625 -0.859375l0.03125 1.78125zm0 -3.125q0.703125 0.578125 1.34375 0.828125q0.65625 0.234375 1.15625 0.234375q0.640625 0 1.171875 -0.28125q0.53125 -0.28125 0.921875 -0.796875q0.390625 -0.515625 0.609375 -1.265625q0.21875 -0.765625 0.21875 -1.703125q0 -0.84375 -0.15625 -1.53125q-0.140625 -0.6875 -0.46875 -1.1875q-0.3125 -0.5 -0.828125 -0.765625q-0.515625 -0.28125 -1.234375 -0.28125q-0.65625 0 -1.3125 0.359375q-0.65625 0.359375 -1.421875 1.03125l0 5.359375zm11.009033 -10.046875q-0.515625 0 -0.859375 -0.3125q-0.34375 -0.3125 -0.34375 -0.796875q0 -0.5 0.34375 -0.796875q0.34375 -0.3125 0.859375 -0.3125q0.5 0 0.84375 0.3125q0.34375 0.296875 0.34375 0.796875q0 0.484375 -0.34375 0.796875q-0.34375 0.3125 -0.84375 0.3125zm-0.890625 2.109375l1.71875 0l0 10.203125l-1.71875 0l0 -10.203125zm5.246765 0l1.4375 0l0.140625 1.46875l0.0625 0q0.734375 -0.734375 1.546875 -1.21875q0.8125 -0.5 1.875 -0.5q1.625 0 2.359375 1.015625q0.75 1.0 0.75 2.96875l0 6.46875l-1.71875 0l0 -6.234375q0 -1.453125 -0.46875 -2.09375q-0.453125 -0.640625 -1.46875 -0.640625q-0.796875 0 -1.40625 0.40625q-0.609375 0.390625 -1.390625 1.171875l0 7.390625l-1.71875 0l0 -10.203125zm10.916504 5.125q0 -1.265625 0.390625 -2.265625q0.390625 -1.0 1.03125 -1.6875q0.640625 -0.6875 1.453125 -1.046875q0.8125 -0.375 1.703125 -0.375q0.96875 0 1.734375 0.34375q0.765625 0.328125 1.28125 0.953125q0.515625 0.625 0.78125 1.515625q0.28125 0.875 0.28125 1.96875q0 0.5625 -0.0625 0.953125l-6.890625 0q0.09375 1.65625 1.0 2.625q0.921875 0.953125 2.390625 0.953125q0.734375 0 1.359375 -0.21875q0.625 -0.21875 1.1875 -0.578125l0.609375 1.140625q-0.671875 0.421875 -1.5 0.734375q-0.8125 0.3125 -1.859375 0.3125q-1.03125 0 -1.921875 -0.359375q-0.890625 -0.375 -1.5625 -1.046875q-0.65625 -0.6875 -1.03125 -1.671875q-0.375 -1.0 -0.375 -2.25zm7.140625 -0.78125q0 -1.578125 -0.671875 -2.40625q-0.65625 -0.828125 -1.84375 -0.828125q-0.546875 0 -1.046875 0.21875q-0.5 0.21875 -0.90625 0.640625q-0.390625 0.40625 -0.65625 1.0q-0.25 0.59375 -0.34375 1.375l5.46875 0zm3.9225464 3.546875q0.671875 0.546875 1.375 0.890625q0.703125 0.328125 1.625 0.328125q1.0 0 1.5 -0.453125q0.515625 -0.46875 0.515625 -1.140625q0 -0.40625 -0.21875 -0.6875q-0.203125 -0.296875 -0.53125 -0.515625q-0.328125 -0.21875 -0.75 -0.390625q-0.40625 -0.171875 -0.828125 -0.34375q-0.546875 -0.1875 -1.09375 -0.421875q-0.546875 -0.25 -0.984375 -0.59375q-0.421875 -0.34375 -0.703125 -0.796875q-0.265625 -0.46875 -0.265625 -1.125q0 -0.609375 0.234375 -1.140625q0.25 -0.53125 0.703125 -0.921875q0.453125 -0.390625 1.09375 -0.609375q0.65625 -0.21875 1.46875 -0.21875q0.96875 0 1.78125 0.34375q0.8125 0.328125 1.390625 0.8125l-0.8125 1.078125q-0.53125 -0.390625 -1.09375 -0.640625q-0.5625 -0.25 -1.234375 -0.25q-0.96875 0 -1.421875 0.4375q-0.453125 0.4375 -0.453125 1.03125q0 0.359375 0.1875 0.625q0.1875 0.25 0.5 0.453125q0.328125 0.203125 0.734375 0.359375q0.40625 0.15625 0.84375 0.328125q0.546875 0.203125 1.09375 0.4375q0.5625 0.234375 1.0 0.578125q0.453125 0.34375 0.734375 0.859375q0.28125 0.5 0.28125 1.203125q0 0.640625 -0.25 1.1875q-0.234375 0.53125 -0.703125 0.953125q-0.46875 0.421875 -1.171875 0.65625q-0.703125 0.25 -1.609375 0.25q-1.09375 0 -2.078125 -0.390625q-0.984375 -0.40625 -1.71875 -1.015625l0.859375 -1.15625zm8.936523 0q0.671875 0.546875 1.375 0.890625q0.703125 0.328125 1.625 0.328125q1.0 0 1.5 -0.453125q0.515625 -0.46875 0.515625 -1.140625q0 -0.40625 -0.21875 -0.6875q-0.203125 -0.296875 -0.53125 -0.515625q-0.328125 -0.21875 -0.75 -0.390625q-0.40625 -0.171875 -0.828125 -0.34375q-0.546875 -0.1875 -1.09375 -0.421875q-0.546875 -0.25 -0.984375 -0.59375q-0.421875 -0.34375 -0.703125 -0.796875q-0.265625 -0.46875 -0.265625 -1.125q0 -0.609375 0.234375 -1.140625q0.25 -0.53125 0.703125 -0.921875q0.453125 -0.390625 1.09375 -0.609375q0.65625 -0.21875 1.46875 -0.21875q0.96875 0 1.78125 0.34375q0.8125 0.328125 1.390625 0.8125l-0.8125 1.078125q-0.53125 -0.390625 -1.09375 -0.640625q-0.5625 -0.25 -1.234375 -0.25q-0.96875 0 -1.421875 0.4375q-0.453125 0.4375 -0.453125 1.03125q0 0.359375 0.1875 0.625q0.1875 0.25 0.5 0.453125q0.328125 0.203125 0.734375 0.359375q0.40625 0.15625 0.84375 0.328125q0.546875 0.203125 1.09375 0.4375q0.5625 0.234375 1.0 0.578125q0.453125 0.34375 0.734375 0.859375q0.28125 0.5 0.28125 1.203125q0 0.640625 -0.25 1.1875q-0.234375 0.53125 -0.703125 0.953125q-0.46875 0.421875 -1.171875 0.65625q-0.703125 0.25 -1.609375 0.25q-1.09375 0 -2.078125 -0.390625q-0.984375 -0.40625 -1.71875 -1.015625l0.859375 -1.15625z" fill-rule="nonzero"></path><path fill="#000000" fill-opacity="0.0" d="m325.5958 299.3386l191.49606 0l0 74.677155l-191.49606 0z" fill-rule="nonzero"></path><path fill="#000000" d="m370.68823 315.62857l2.0 0l0 6.609375l7.3125 0l0 -6.609375l2.015625 0l0 15.75l-2.015625 0l0 -7.421875l-7.3125 0l0 7.421875l-2.0 0l0 -15.75zm14.882324 12.71875q0 -1.90625 1.71875 -2.921875q1.71875 -1.03125 5.453125 -1.4375q0 -0.546875 -0.109375 -1.078125q-0.09375 -0.53125 -0.375 -0.9375q-0.28125 -0.40625 -0.734375 -0.65625q-0.453125 -0.25 -1.171875 -0.25q-1.03125 0 -1.90625 0.390625q-0.875 0.375 -1.578125 0.84375l-0.796875 -1.359375q0.828125 -0.53125 2.0 -1.015625q1.171875 -0.5 2.59375 -0.5q2.125 0 3.078125 1.3125q0.96875 1.296875 0.96875 3.484375l0 7.15625l-1.625 0l-0.171875 -1.390625l-0.046875 0q-0.84375 0.6875 -1.8125 1.1875q-0.96875 0.484375 -2.046875 0.484375q-1.484375 0 -2.46875 -0.859375q-0.96875 -0.859375 -0.96875 -2.453125zm1.953125 -0.140625q0 1.015625 0.578125 1.453125q0.59375 0.421875 1.453125 0.421875q0.84375 0 1.59375 -0.390625q0.765625 -0.40625 1.59375 -1.171875l0 -3.234375q-1.453125 0.1875 -2.46875 0.453125q-1.0 0.265625 -1.625 0.625q-0.609375 0.359375 -0.875 0.828125q-0.25 0.46875 -0.25 1.015625zm12.881714 4.15625l0 3.9375l-1.96875 0l0 -16.578125l1.625 0l0.171875 1.34375l0.078125 0q0.78125 -0.671875 1.734375 -1.15625q0.953125 -0.484375 1.984375 -0.484375q1.125 0 1.984375 0.421875q0.875 0.421875 1.4375 1.203125q0.578125 0.78125 0.875 1.875q0.3125 1.078125 0.3125 2.453125q0 1.484375 -0.40625 2.65625q-0.40625 1.15625 -1.109375 1.984375q-0.703125 0.8125 -1.609375 1.234375q-0.90625 0.40625 -1.921875 0.40625q-0.8125 0 -1.625 -0.359375q-0.796875 -0.359375 -1.609375 -0.984375l0.046875 2.046875zm0 -3.578125q0.796875 0.671875 1.53125 0.953125q0.75 0.265625 1.328125 0.265625q0.71875 0 1.328125 -0.3125q0.609375 -0.328125 1.046875 -0.90625q0.453125 -0.59375 0.703125 -1.453125q0.25 -0.875 0.25 -1.953125q0 -0.953125 -0.171875 -1.75q-0.15625 -0.796875 -0.53125 -1.359375q-0.375 -0.5625 -0.96875 -0.875q-0.578125 -0.3125 -1.390625 -0.3125q-0.75 0 -1.515625 0.40625q-0.75 0.40625 -1.609375 1.171875l0 6.125zm13.319977 3.578125l0 3.9375l-1.96875 0l0 -16.578125l1.625 0l0.171875 1.34375l0.078125 0q0.78125 -0.671875 1.734375 -1.15625q0.953125 -0.484375 1.984375 -0.484375q1.125 0 1.984375 0.421875q0.875 0.421875 1.4375 1.203125q0.578125 0.78125 0.875 1.875q0.3125 1.078125 0.3125 2.453125q0 1.484375 -0.40625 2.65625q-0.40625 1.15625 -1.109375 1.984375q-0.703125 0.8125 -1.609375 1.234375q-0.90625 0.40625 -1.921875 0.40625q-0.8125 0 -1.625 -0.359375q-0.796875 -0.359375 -1.609375 -0.984375l0.046875 2.046875zm0 -3.578125q0.796875 0.671875 1.53125 0.953125q0.75 0.265625 1.328125 0.265625q0.71875 0 1.328125 -0.3125q0.609375 -0.328125 1.046875 -0.90625q0.453125 -0.59375 0.703125 -1.453125q0.25 -0.875 0.25 -1.953125q0 -0.953125 -0.171875 -1.75q-0.15625 -0.796875 -0.53125 -1.359375q-0.375 -0.5625 -0.96875 -0.875q-0.578125 -0.3125 -1.390625 -0.3125q-0.75 0 -1.515625 0.40625q-0.75 0.40625 -1.609375 1.171875l0 6.125zm12.351196 -11.46875q-0.5625 0 -0.96875 -0.359375q-0.390625 -0.359375 -0.390625 -0.921875q0 -0.5625 0.390625 -0.90625q0.40625 -0.359375 0.96875 -0.359375q0.578125 0 0.96875 0.359375q0.40625 0.34375 0.40625 0.90625q0 0.5625 -0.40625 0.921875q-0.390625 0.359375 -0.96875 0.359375zm-1.0 2.40625l1.96875 0l0 11.65625l-1.96875 0l0 -11.65625zm5.9039917 0l1.625 0l0.171875 1.671875l0.078125 0q0.84375 -0.84375 1.765625 -1.40625q0.921875 -0.5625 2.140625 -0.5625q1.84375 0 2.6875 1.15625q0.859375 1.15625 0.859375 3.40625l0 7.390625l-1.953125 0l0 -7.125q0 -1.65625 -0.53125 -2.390625q-0.53125 -0.734375 -1.6875 -0.734375q-0.90625 0 -1.609375 0.453125q-0.6875 0.453125 -1.578125 1.34375l0 8.453125l-1.96875 0l0 -11.65625zm12.268585 5.84375q0 -1.4375 0.4375 -2.578125q0.4375 -1.140625 1.171875 -1.921875q0.734375 -0.796875 1.671875 -1.21875q0.9375 -0.421875 1.953125 -0.421875q1.09375 0 1.96875 0.390625q0.875 0.375 1.46875 1.09375q0.59375 0.71875 0.890625 1.734375q0.3125 1.0 0.3125 2.25q0 0.65625 -0.0625 1.078125l-7.875 0q0.125 1.90625 1.15625 3.015625q1.046875 1.09375 2.734375 1.09375q0.84375 0 1.546875 -0.25q0.703125 -0.25 1.359375 -0.65625l0.6875 1.296875q-0.765625 0.46875 -1.703125 0.828125q-0.9375 0.359375 -2.125 0.359375q-1.1875 0 -2.203125 -0.40625q-1.015625 -0.421875 -1.78125 -1.203125q-0.75 -0.78125 -1.1875 -1.90625q-0.421875 -1.140625 -0.421875 -2.578125zm8.15625 -0.890625q0 -1.796875 -0.765625 -2.734375q-0.75 -0.953125 -2.109375 -0.953125q-0.625 0 -1.203125 0.25q-0.5625 0.25 -1.015625 0.71875q-0.453125 0.46875 -0.75 1.15625q-0.296875 0.6875 -0.390625 1.5625l6.234375 0zm4.294586 4.0625q0.765625 0.625 1.5625 1.015625q0.8125 0.375 1.875 0.375q1.140625 0 1.71875 -0.515625q0.578125 -0.53125 0.578125 -1.3125q0 -0.453125 -0.25 -0.78125q-0.234375 -0.34375 -0.609375 -0.59375q-0.359375 -0.25 -0.84375 -0.4375q-0.484375 -0.203125 -0.953125 -0.390625q-0.625 -0.21875 -1.25 -0.484375q-0.625 -0.28125 -1.125 -0.671875q-0.484375 -0.40625 -0.796875 -0.921875q-0.3125 -0.53125 -0.3125 -1.28125q0 -0.703125 0.265625 -1.3125q0.28125 -0.609375 0.796875 -1.046875q0.515625 -0.453125 1.25 -0.703125q0.75 -0.25 1.6875 -0.25q1.109375 0 2.03125 0.390625q0.921875 0.375 1.59375 0.9375l-0.9375 1.234375q-0.59375 -0.453125 -1.25 -0.734375q-0.640625 -0.296875 -1.40625 -0.296875q-1.109375 0 -1.625 0.515625q-0.515625 0.5 -0.515625 1.171875q0 0.40625 0.21875 0.703125q0.21875 0.296875 0.578125 0.53125q0.359375 0.234375 0.828125 0.421875q0.46875 0.171875 0.96875 0.359375q0.625 0.234375 1.25 0.5q0.640625 0.265625 1.140625 0.671875q0.515625 0.390625 0.828125 0.96875q0.328125 0.5625 0.328125 1.390625q0 0.71875 -0.28125 1.34375q-0.265625 0.625 -0.8125 1.109375q-0.53125 0.46875 -1.34375 0.734375q-0.796875 0.28125 -1.828125 0.28125q-1.25 0 -2.375 -0.453125q-1.125 -0.453125 -1.96875 -1.140625l0.984375 -1.328125zm10.055969 0q0.765625 0.625 1.5625 1.015625q0.8125 0.375 1.875 0.375q1.140625 0 1.71875 -0.515625q0.578125 -0.53125 0.578125 -1.3125q0 -0.453125 -0.25 -0.78125q-0.234375 -0.34375 -0.609375 -0.59375q-0.359375 -0.25 -0.84375 -0.4375q-0.484375 -0.203125 -0.953125 -0.390625q-0.625 -0.21875 -1.25 -0.484375q-0.625 -0.28125 -1.125 -0.671875q-0.484375 -0.40625 -0.796875 -0.921875q-0.3125 -0.53125 -0.3125 -1.28125q0 -0.703125 0.265625 -1.3125q0.28125 -0.609375 0.796875 -1.046875q0.515625 -0.453125 1.25 -0.703125q0.75 -0.25 1.6875 -0.25q1.109375 0 2.03125 0.390625q0.921875 0.375 1.59375 0.9375l-0.9375 1.234375q-0.59375 -0.453125 -1.25 -0.734375q-0.640625 -0.296875 -1.40625 -0.296875q-1.109375 0 -1.625 0.515625q-0.515625 0.5 -0.515625 1.171875q0 0.40625 0.21875 0.703125q0.21875 0.296875 0.578125 0.53125q0.359375 0.234375 0.828125 0.421875q0.46875 0.171875 0.96875 0.359375q0.625 0.234375 1.25 0.5q0.640625 0.265625 1.140625 0.671875q0.515625 0.390625 0.828125 0.96875q0.328125 0.5625 0.328125 1.390625q0 0.71875 -0.28125 1.34375q-0.265625 0.625 -0.8125 1.109375q-0.53125 0.46875 -1.34375 0.734375q-0.796875 0.28125 -1.828125 0.28125q-1.25 0 -2.375 -0.453125q-1.125 -0.453125 -1.96875 -1.140625l0.984375 -1.328125z" fill-rule="nonzero"></path><path fill="#000000" fill-opacity="0.0" d="m0 299.3386l191.49606 0l0 74.677155l-191.49606 0z" fill-rule="nonzero"></path><path fill="#000000" d="m69.91411 323.50357q0 -1.890625 0.515625 -3.40625q0.53125 -1.515625 1.46875 -2.5625q0.9375 -1.0625 2.21875 -1.625q1.296875 -0.5625 2.796875 -0.5625q1.453125 0 2.53125 0.59375q1.078125 0.578125 1.765625 1.34375l-1.125 1.28125q-0.625 -0.671875 -1.390625 -1.0625q-0.75 -0.40625 -1.75 -0.40625q-1.125 0 -2.046875 0.453125q-0.90625 0.4375 -1.5625 1.265625q-0.640625 0.828125 -1.0 2.0q-0.359375 1.171875 -0.359375 2.640625q0 1.484375 0.34375 2.671875q0.359375 1.1875 0.96875 2.03125q0.625 0.84375 1.53125 1.296875q0.90625 0.453125 2.03125 0.453125q1.15625 0 2.0 -0.453125q0.859375 -0.453125 1.625 -1.296875l1.125 1.234375q-0.9375 1.078125 -2.125 1.671875q-1.171875 0.59375 -2.671875 0.59375q-1.5 0 -2.765625 -0.546875q-1.25 -0.546875 -2.171875 -1.59375q-0.921875 -1.046875 -1.4375 -2.5625q-0.515625 -1.53125 -0.515625 -3.453125zm13.563339 2.0625q0 -1.453125 0.4375 -2.59375q0.4375 -1.140625 1.1875 -1.9375q0.75 -0.796875 1.71875 -1.203125q0.96875 -0.40625 2.046875 -0.40625q1.078125 0 2.046875 0.40625q0.984375 0.40625 1.71875 1.203125q0.75 0.796875 1.1875 1.9375q0.453125 1.140625 0.453125 2.59375q0 1.4375 -0.453125 2.578125q-0.4375 1.140625 -1.1875 1.921875q-0.734375 0.78125 -1.71875 1.1875q-0.96875 0.40625 -2.046875 0.40625q-1.078125 0 -2.046875 -0.40625q-0.96875 -0.40625 -1.71875 -1.1875q-0.75 -0.78125 -1.1875 -1.921875q-0.4375 -1.140625 -0.4375 -2.578125zm2.03125 0q0 1.015625 0.234375 1.828125q0.25 0.8125 0.6875 1.40625q0.453125 0.59375 1.078125 0.921875q0.625 0.3125 1.359375 0.3125q0.75 0 1.375 -0.3125q0.625 -0.328125 1.0625 -0.921875q0.453125 -0.59375 0.6875 -1.40625q0.234375 -0.8125 0.234375 -1.828125q0 -1.0 -0.234375 -1.828125q-0.234375 -0.828125 -0.6875 -1.421875q-0.4375 -0.609375 -1.0625 -0.921875q-0.625 -0.328125 -1.375 -0.328125q-0.734375 0 -1.359375 0.328125q-0.625 0.3125 -1.078125 0.921875q-0.4375 0.59375 -0.6875 1.421875q-0.234375 0.828125 -0.234375 1.828125zm11.83609 -11.28125l1.96875 0l0 14.890625q0 0.46875 0.15625 0.671875q0.171875 0.1875 0.390625 0.1875q0.09375 0 0.171875 0q0.09375 0 0.265625 -0.046875l0.265625 1.484375q-0.203125 0.09375 -0.46875 0.140625q-0.25 0.046875 -0.65625 0.046875q-1.140625 0 -1.625 -0.671875q-0.46875 -0.671875 -0.46875 -1.96875l0 -14.734375zm5.260605 11.28125q0 -1.453125 0.4375 -2.59375q0.4375 -1.140625 1.1875 -1.9375q0.75 -0.796875 1.71875 -1.203125q0.96875 -0.40625 2.046875 -0.40625q1.078125 0 2.046875 0.40625q0.984375 0.40625 1.71875 1.203125q0.75 0.796875 1.1875 1.9375q0.453125 1.140625 0.453125 2.59375q0 1.4375 -0.453125 2.578125q-0.4375 1.140625 -1.1875 1.921875q-0.734375 0.78125 -1.71875 1.1875q-0.96875 0.40625 -2.046875 0.40625q-1.078125 0 -2.046875 -0.40625q-0.96875 -0.40625 -1.71875 -1.1875q-0.75 -0.78125 -1.1875 -1.921875q-0.4375 -1.140625 -0.4375 -2.578125zm2.03125 0q0 1.015625 0.234375 1.828125q0.25 0.8125 0.6875 1.40625q0.453125 0.59375 1.078125 0.921875q0.625 0.3125 1.359375 0.3125q0.75 0 1.375 -0.3125q0.625 -0.328125 1.0625 -0.921875q0.453125 -0.59375 0.6875 -1.40625q0.234375 -0.8125 0.234375 -1.828125q0 -1.0 -0.234375 -1.828125q-0.234375 -0.828125 -0.6875 -1.421875q-0.4375 -0.609375 -1.0625 -0.921875q-0.625 -0.328125 -1.375 -0.328125q-0.734375 0 -1.359375 0.328125q-0.625 0.3125 -1.078125 0.921875q-0.4375 0.59375 -0.6875 1.421875q-0.234375 0.828125 -0.234375 1.828125zm11.83609 -5.84375l1.625 0l0.171875 2.109375l0.078125 0q0.59375 -1.109375 1.4375 -1.75q0.859375 -0.65625 1.875 -0.65625q0.6875 0 1.25 0.234375l-0.390625 1.734375q-0.28125 -0.09375 -0.53125 -0.140625q-0.234375 -0.046875 -0.59375 -0.046875q-0.75 0 -1.5625 0.609375q-0.796875 0.59375 -1.390625 2.078125l0 7.484375l-1.96875 0l0 -11.65625z" fill-rule="nonzero"></path><path fill="#f1c232" d="m46.986877 266.83466l40.503937 0l0 40.503937l-40.503937 0z" fill-rule="nonzero"></path></g></svg>

