<?xml version="1.0" standalone="yes"?>

<svg version="1.1" viewBox="0.0 0.0 530.0 362.0" fill="none" stroke="none" stroke-linecap="square" stroke-miterlimit="10" xmlns="http://www.w3.org/2000/svg" xmlns:xlink="http://www.w3.org/1999/xlink"><clipPath id="p.0"><path d="m0 0l530.0 0l0 362.0l-530.0 0l0 -362.0z" clip-rule="nonzero"></path></clipPath><g clip-path="url(#p.0)"><path fill="#000000" fill-opacity="0.0" d="m0 0l530.8425 0l0 362.68503l-530.8425 0z" fill-rule="nonzero"></path><path fill="#000000" fill-opacity="0.0" d="m103.1601 299.3386l142.50394 -246.48819l142.50392 246.48819z" fill-rule="nonzero"></path><path stroke="#999999" stroke-width="4.0" stroke-linejoin="round" stroke-linecap="butt" d="m103.1601 299.3386l142.50394 -246.48819l142.50392 246.48819z" fill-rule="nonzero"></path><path fill="#000000" fill-opacity="0.0" d="m73.79265 0l346.99213 0l0 74.67717l-346.99213 0z" fill-rule="nonzero"></path><path fill="#000000" d="m105.009384 23.75875l2.640625 0q1.84375 0 2.828125 -0.75q0.984375 -0.765625 0.984375 -2.296875q0 -1.5625 -0.984375 -2.1875q-0.984375 -0.625 -2.828125 -0.625l-2.640625 0l0 5.859375zm6.640625 8.28125l-3.78125 -6.640625l-2.859375 0l0 6.640625l-2.0 0l0 -15.75l4.921875 0q1.203125 0 2.21875 0.234375q1.015625 0.234375 1.75 0.765625q0.734375 0.515625 1.140625 1.359375q0.40625 0.84375 0.40625 2.0625q0 1.84375 -0.953125 2.953125q-0.953125 1.109375 -2.5625 1.515625l3.984375 6.859375l-2.265625 0zm4.2564545 -5.8125q0 -1.4375 0.4375 -2.578125q0.4375 -1.140625 1.171875 -1.921875q0.734375 -0.796875 1.671875 -1.21875q0.9375 -0.421875 1.953125 -0.421875q1.09375 0 1.96875 0.390625q0.875 0.375 1.46875 1.09375q0.59375 0.71875 0.890625 1.734375q0.3125 1.0 0.3125 2.25q0 0.65625 -0.0625 1.078125l-7.875 0q0.125 1.90625 1.15625 3.015625q1.046875 1.09375 2.734375 1.09375q0.84375 0 1.546875 -0.25q0.703125 -0.25 1.359375 -0.65625l0.6875 1.296875q-0.765625 0.46875 -1.703125 0.828125q-0.9375 0.359375 -2.125 0.359375q-1.1875 0 -2.203125 -0.40625q-1.015625 -0.421875 -1.78125 -1.203125q-0.75 -0.78125 -1.1875 -1.90625q-0.421875 -1.140625 -0.421875 -2.578125zm8.15625 -0.890625q0 -1.796875 -0.765625 -2.734375q-0.75 -0.953125 -2.109375 -0.953125q-0.625 0 -1.203125 0.25q-0.5625 0.25 -1.015625 0.71875q-0.453125 0.46875 -0.75 1.15625q-0.296875 0.6875 -0.390625 1.5625l6.234375 0zm9.857086 -8.78125q-0.640625 -0.28125 -1.3125 -0.28125q-1.640625 0 -1.640625 2.25l0 1.859375l2.484375 0l0 1.59375l-2.484375 0l0 10.0625l-1.96875 0l0 -10.0625l-1.578125 0l0 -1.484375l1.578125 -0.109375l0 -1.859375q0 -1.796875 0.828125 -2.828125q0.828125 -1.03125 2.59375 -1.03125q0.546875 0 1.03125 0.109375q0.5 0.109375 0.90625 0.28125l-0.4375 1.5zm0.89860535 9.671875q0 -1.4375 0.4375 -2.578125q0.4375 -1.140625 1.171875 -1.921875q0.734375 -0.796875 1.671875 -1.21875q0.9375 -0.421875 1.953125 -0.421875q1.09375 0 1.96875 0.390625q0.875 0.375 1.46875 1.09375q0.59375 0.71875 0.890625 1.734375q0.3125 1.0 0.3125 2.25q0 0.65625 -0.0625 1.078125l-7.875 0q0.125 1.90625 1.15625 3.015625q1.046875 1.09375 2.734375 1.09375q0.84375 0 1.546875 -0.25q0.703125 -0.25 1.359375 -0.65625l0.6875 1.296875q-0.765625 0.46875 -1.703125 0.828125q-0.9375 0.359375 -2.125 0.359375q-1.1875 0 -2.203125 -0.40625q-1.015625 -0.421875 -1.78125 -1.203125q-0.75 -0.78125 -1.1875 -1.90625q-0.421875 -1.140625 -0.421875 -2.578125zm8.15625 -0.890625q0 -1.796875 -0.765625 -2.734375q-0.75 -0.953125 -2.109375 -0.953125q-0.625 0 -1.203125 0.25q-0.5625 0.25 -1.015625 0.71875q-0.453125 0.46875 -0.75 1.15625q-0.296875 0.6875 -0.390625 1.5625l6.234375 0zm4.607086 -4.953125l1.625 0l0.171875 2.109375l0.078125 0q0.59375 -1.109375 1.4375 -1.75q0.859375 -0.65625 1.875 -0.65625q0.6875 0 1.25 0.234375l-0.390625 1.734375q-0.28125 -0.09375 -0.53125 -0.140625q-0.234375 -0.046875 -0.59375 -0.046875q-0.75 0 -1.5625 0.609375q-0.796875 0.59375 -1.390625 2.078125l0 7.484375l-1.96875 0l0 -11.65625zm7.4685974 5.84375q0 -1.4375 0.4375 -2.578125q0.4375 -1.140625 1.171875 -1.921875q0.734375 -0.796875 1.671875 -1.21875q0.9375 -0.421875 1.953125 -0.421875q1.09375 0 1.96875 0.390625q0.875 0.375 1.46875 1.09375q0.59375 0.71875 0.890625 1.734375q0.3125 1.0 0.3125 2.25q0 0.65625 -0.0625 1.078125l-7.875 0q0.125 1.90625 1.15625 3.015625q1.046875 1.09375 2.734375 1.09375q0.84375 0 1.546875 -0.25q0.703125 -0.25 1.359375 -0.65625l0.6875 1.296875q-0.765625 0.46875 -1.703125 0.828125q-0.9375 0.359375 -2.125 0.359375q-1.1875 0 -2.203125 -0.40625q-1.015625 -0.421875 -1.78125 -1.203125q-0.75 -0.78125 -1.1875 -1.90625q-0.421875 -1.140625 -0.421875 -2.578125zm8.15625 -0.890625q0 -1.796875 -0.765625 -2.734375q-0.75 -0.953125 -2.109375 -0.953125q-0.625 0 -1.203125 0.25q-0.5625 0.25 -1.015625 0.71875q-0.453125 0.46875 -0.75 1.15625q-0.296875 0.6875 -0.390625 1.5625l6.234375 0zm4.607086 -4.953125l1.625 0l0.171875 1.671875l0.078125 0q0.84375 -0.84375 1.765625 -1.40625q0.921875 -0.5625 2.140625 -0.5625q1.84375 0 2.6875 1.15625q0.859375 1.15625 0.859375 3.40625l0 7.390625l-1.953125 0l0 -7.125q0 -1.65625 -0.53125 -2.390625q-0.53125 -0.734375 -1.6875 -0.734375q-0.90625 0 -1.609375 0.453125q-0.6875 0.453125 -1.578125 1.34375l0 8.453125l-1.96875 0l0 -11.65625zm12.268585 5.84375q0 -1.453125 0.453125 -2.59375q0.453125 -1.140625 1.21875 -1.9375q0.765625 -0.796875 1.78125 -1.203125q1.03125 -0.40625 2.15625 -0.40625q1.15625 0 1.984375 0.421875q0.828125 0.421875 1.421875 0.96875l-0.984375 1.28125q-0.53125 -0.46875 -1.09375 -0.75q-0.5625 -0.28125 -1.25 -0.28125q-0.796875 0 -1.46875 0.328125q-0.671875 0.3125 -1.15625 0.921875q-0.46875 0.59375 -0.75 1.421875q-0.28125 0.828125 -0.28125 1.828125q0 1.015625 0.265625 1.828125q0.265625 0.8125 0.734375 1.40625q0.46875 0.59375 1.140625 0.921875q0.671875 0.3125 1.46875 0.3125q0.828125 0 1.515625 -0.34375q0.6875 -0.359375 1.21875 -0.828125l0.890625 1.296875q-0.796875 0.6875 -1.78125 1.09375q-0.96875 0.40625 -2.015625 0.40625q-1.15625 0 -2.171875 -0.40625q-1.0 -0.40625 -1.734375 -1.1875q-0.734375 -0.78125 -1.15625 -1.921875q-0.40625 -1.140625 -0.40625 -2.578125zm10.94397 0q0 -1.4375 0.4375 -2.578125q0.4375 -1.140625 1.171875 -1.921875q0.734375 -0.796875 1.671875 -1.21875q0.9375 -0.421875 1.953125 -0.421875q1.09375 0 1.96875 0.390625q0.875 0.375 1.46875 1.09375q0.59375 0.71875 0.890625 1.734375q0.3125 1.0 0.3125 2.25q0 0.65625 -0.0625 1.078125l-7.875 0q0.125 1.90625 1.15625 3.015625q1.046875 1.09375 2.734375 1.09375q0.84375 0 1.546875 -0.25q0.703125 -0.25 1.359375 -0.65625l0.6875 1.296875q-0.765625 0.46875 -1.703125 0.828125q-0.9375 0.359375 -2.125 0.359375q-1.1875 0 -2.203125 -0.40625q-1.015625 -0.421875 -1.78125 -1.203125q-0.75 -0.78125 -1.1875 -1.90625q-0.421875 -1.140625 -0.421875 -2.578125zm8.15625 -0.890625q0 -1.796875 -0.765625 -2.734375q-0.75 -0.953125 -2.109375 -0.953125q-0.625 0 -1.203125 0.25q-0.5625 0.25 -1.015625 0.71875q-0.453125 0.46875 -0.75 1.15625q-0.296875 0.6875 -0.390625 1.5625l6.234375 0zm3.7633362 9.625q1.015625 -0.453125 1.578125 -1.203125q0.578125 -0.734375 0.578125 -1.71875q-0.0625 0.03125 -0.234375 0.03125q-0.578125 0 -1.0 -0.34375q-0.421875 -0.359375 -0.421875 -1.03125q0 -0.640625 0.4375 -1.015625q0.4375 -0.375 1.03125 -0.375q0.765625 0 1.203125 0.625q0.453125 0.625 0.453125 1.703125q0 1.5625 -0.84375 2.703125q-0.828125 1.15625 -2.296875 1.78125l-0.484375 -1.15625zm10.948975 -10.796875q0 -1.890625 0.515625 -3.40625q0.53125 -1.515625 1.46875 -2.5625q0.9375 -1.0625 2.21875 -1.625q1.296875 -0.5625 2.796875 -0.5625q1.453125 0 2.53125 0.59375q1.078125 0.578125 1.765625 1.34375l-1.125 1.28125q-0.625 -0.671875 -1.390625 -1.0625q-0.75 -0.40625 -1.75 -0.40625q-1.125 0 -2.046875 0.453125q-0.90625 0.4375 -1.5625 1.265625q-0.640625 0.828125 -1.0 2.0q-0.359375 1.171875 -0.359375 2.640625q0 1.484375 0.34375 2.671875q0.359375 1.1875 0.96875 2.03125q0.625 0.84375 1.53125 1.296875q0.90625 0.453125 2.03125 0.453125q1.15625 0 2.0 -0.453125q0.859375 -0.453125 1.625 -1.296875l1.125 1.234375q-0.9375 1.078125 -2.125 1.671875q-1.171875 0.59375 -2.671875 0.59375q-1.5 0 -2.765625 -0.546875q-1.25 -0.546875 -2.171875 -1.59375q-0.921875 -1.046875 -1.4375 -2.5625q-0.515625 -1.53125 -0.515625 -3.453125zm13.563339 2.0625q0 -1.453125 0.4375 -2.59375q0.4375 -1.140625 1.1875 -1.9375q0.75 -0.796875 1.71875 -1.203125q0.96875 -0.40625 2.046875 -0.40625q1.078125 0 2.046875 0.40625q0.984375 0.40625 1.71875 1.203125q0.75 0.796875 1.1875 1.9375q0.453125 1.140625 0.453125 2.59375q0 1.4375 -0.453125 2.578125q-0.4375 1.140625 -1.1875 1.921875q-0.734375 0.78125 -1.71875 1.1875q-0.96875 0.40625 -2.046875 0.40625q-1.078125 0 -2.046875 -0.40625q-0.96875 -0.40625 -1.71875 -1.1875q-0.75 -0.78125 -1.1875 -1.921875q-0.4375 -1.140625 -0.4375 -2.578125zm2.03125 0q0 1.015625 0.234375 1.828125q0.25 0.8125 0.6875 1.40625q0.453125 0.59375 1.078125 0.921875q0.625 0.3125 1.359375 0.3125q0.75 0 1.375 -0.3125q0.625 -0.328125 1.0625 -0.921875q0.453125 -0.59375 0.6875 -1.40625q0.234375 -0.8125 0.234375 -1.828125q0 -1.0 -0.234375 -1.828125q-0.234375 -0.828125 -0.6875 -1.421875q-0.4375 -0.609375 -1.0625 -0.921875q-0.625 -0.328125 -1.375 -0.328125q-0.734375 0 -1.359375 0.328125q-0.625 0.3125 -1.078125 0.921875q-0.4375 0.59375 -0.6875 1.421875q-0.234375 0.828125 -0.234375 1.828125zm11.83609 -5.84375l1.625 0l0.171875 1.671875l0.078125 0q0.84375 -0.84375 1.765625 -1.40625q0.921875 -0.5625 2.140625 -0.5625q1.84375 0 2.6875 1.15625q0.859375 1.15625 0.859375 3.40625l0 7.390625l-1.953125 0l0 -7.125q0 -1.65625 -0.53125 -2.390625q-0.53125 -0.734375 -1.6875 -0.734375q-0.90625 0 -1.609375 0.453125q-0.6875 0.453125 -1.578125 1.34375l0 8.453125l-1.96875 0l0 -11.65625zm12.268585 5.84375q0 -1.453125 0.453125 -2.59375q0.453125 -1.140625 1.21875 -1.9375q0.765625 -0.796875 1.78125 -1.203125q1.03125 -0.40625 2.15625 -0.40625q1.15625 0 1.984375 0.421875q0.828125 0.421875 1.421875 0.96875l-0.984375 1.28125q-0.53125 -0.46875 -1.09375 -0.75q-0.5625 -0.28125 -1.25 -0.28125q-0.796875 0 -1.46875 0.328125q-0.671875 0.3125 -1.15625 0.921875q-0.46875 0.59375 -0.75 1.421875q-0.28125 0.828125 -0.28125 1.828125q0 1.015625 0.265625 1.828125q0.265625 0.8125 0.734375 1.40625q0.46875 0.59375 1.140625 0.921875q0.671875 0.3125 1.46875 0.3125q0.828125 0 1.515625 -0.34375q0.6875 -0.359375 1.21875 -0.828125l0.890625 1.296875q-0.796875 0.6875 -1.78125 1.09375q-0.96875 0.40625 -2.015625 0.40625q-1.15625 0 -2.171875 -0.40625q-1.0 -0.40625 -1.734375 -1.1875q-0.734375 -0.78125 -1.15625 -1.921875q-0.40625 -1.140625 -0.40625 -2.578125zm10.94397 0q0 -1.4375 0.4375 -2.578125q0.4375 -1.140625 1.171875 -1.921875q0.734375 -0.796875 1.671875 -1.21875q0.9375 -0.421875 1.953125 -0.421875q1.09375 0 1.96875 0.390625q0.875 0.375 1.46875 1.09375q0.59375 0.71875 0.890625 1.734375q0.3125 1.0 0.3125 2.25q0 0.65625 -0.0625 1.078125l-7.875 0q0.125 1.90625 1.15625 3.015625q1.046875 1.09375 2.734375 1.09375q0.84375 0 1.546875 -0.25q0.703125 -0.25 1.359375 -0.65625l0.6875 1.296875q-0.765625 0.46875 -1.703125 0.828125q-0.9375 0.359375 -2.125 0.359375q-1.1875 0 -2.203125 -0.40625q-1.015625 -0.421875 -1.78125 -1.203125q-0.75 -0.78125 -1.1875 -1.90625q-0.421875 -1.140625 -0.421875 -2.578125zm8.15625 -0.890625q0 -1.796875 -0.765625 -2.734375q-0.75 -0.953125 -2.109375 -0.953125q-0.625 0 -1.203125 0.25q-0.5625 0.25 -1.015625 0.71875q-0.453125 0.46875 -0.75 1.15625q-0.296875 0.6875 -0.390625 1.5625l6.234375 0zm6.575836 7.6875l0 3.9375l-1.96875 0l0 -16.578125l1.625 0l0.171875 1.34375l0.078125 0q0.78125 -0.671875 1.734375 -1.15625q0.953125 -0.484375 1.984375 -0.484375q1.125 0 1.984375 0.421875q0.875 0.421875 1.4375 1.203125q0.578125 0.78125 0.875 1.875q0.3125 1.078125 0.3125 2.453125q0 1.484375 -0.40625 2.65625q-0.40625 1.15625 -1.109375 1.984375q-0.703125 0.8125 -1.609375 1.234375q-0.90625 0.40625 -1.921875 0.40625q-0.8125 0 -1.625 -0.359375q-0.796875 -0.359375 -1.609375 -0.984375l0.046875 2.046875zm0 -3.578125q0.796875 0.671875 1.53125 0.953125q0.75 0.265625 1.328125 0.265625q0.71875 0 1.328125 -0.3125q0.609375 -0.328125 1.046875 -0.90625q0.453125 -0.59375 0.703125 -1.453125q0.25 -0.875 0.25 -1.953125q0 -0.953125 -0.171875 -1.75q-0.15625 -0.796875 -0.53125 -1.359375q-0.375 -0.5625 -0.96875 -0.875q-0.578125 -0.3125 -1.390625 -0.3125q-0.75 0 -1.515625 0.40625q-0.75 0.40625 -1.609375 1.171875l0 6.125zm11.679352 -7.46875l-1.71875 0l0 -1.484375l1.828125 -0.109375l0.234375 -3.265625l1.65625 0l0 3.265625l3.140625 0l0 1.59375l-3.140625 0l0 6.484375q0 1.078125 0.390625 1.671875q0.40625 0.59375 1.40625 0.59375q0.3125 0 0.671875 -0.09375q0.359375 -0.109375 0.65625 -0.21875l0.375 1.484375q-0.484375 0.171875 -1.046875 0.296875q-0.5625 0.125 -1.109375 0.125q-0.9375 0 -1.578125 -0.28125q-0.625 -0.28125 -1.03125 -0.78125q-0.390625 -0.515625 -0.5625 -1.234375q-0.171875 -0.71875 -0.171875 -1.578125l0 -6.46875zm7.471344 7.421875q0.765625 0.625 1.5625 1.015625q0.8125 0.375 1.875 0.375q1.140625 0 1.71875 -0.515625q0.578125 -0.53125 0.578125 -1.3125q0 -0.453125 -0.25 -0.78125q-0.234375 -0.34375 -0.609375 -0.59375q-0.359375 -0.25 -0.84375 -0.4375q-0.484375 -0.203125 -0.953125 -0.390625q-0.625 -0.21875 -1.25 -0.484375q-0.625 -0.28125 -1.125 -0.671875q-0.484375 -0.40625 -0.796875 -0.921875q-0.3125 -0.53125 -0.3125 -1.28125q0 -0.703125 0.265625 -1.3125q0.28125 -0.609375 0.796875 -1.046875q0.515625 -0.453125 1.25 -0.703125q0.75 -0.25 1.6875 -0.25q1.109375 0 2.03125 0.390625q0.921875 0.375 1.59375 0.9375l-0.9375 1.234375q-0.59375 -0.453125 -1.25 -0.734375q-0.640625 -0.296875 -1.40625 -0.296875q-1.109375 0 -1.625 0.515625q-0.515625 0.5 -0.515625 1.171875q0 0.40625 0.21875 0.703125q0.21875 0.296875 0.578125 0.53125q0.359375 0.234375 0.828125 0.421875q0.46875 0.171875 0.96875 0.359375q0.625 0.234375 1.25 0.5q0.640625 0.265625 1.140625 0.671875q0.515625 0.390625 0.828125 0.96875q0.328125 0.5625 0.328125 1.390625q0 0.71875 -0.28125 1.34375q-0.265625 0.625 -0.8125 1.109375q-0.53125 0.46875 -1.34375 0.734375q-0.796875 0.28125 -1.828125 0.28125q-1.25 0 -2.375 -0.453125q-1.125 -0.453125 -1.96875 -1.140625l0.984375 -1.328125zm9.524719 5.5625q1.015625 -0.453125 1.578125 -1.203125q0.578125 -0.734375 0.578125 -1.71875q-0.0625 0.03125 -0.234375 0.03125q-0.578125 0 -1.0 -0.34375q-0.421875 -0.359375 -0.421875 -1.03125q0 -0.640625 0.4375 -1.015625q0.4375 -0.375 1.03125 -0.375q0.765625 0 1.203125 0.625q0.453125 0.625 0.453125 1.703125q0 1.5625 -0.84375 2.703125q-0.828125 1.15625 -2.296875 1.78125l-0.484375 -1.15625zm11.9021 -6.359375q0.84375 0.890625 1.984375 1.4375q1.140625 0.53125 2.359375 0.53125q1.5625 0 2.421875 -0.703125q0.875 -0.703125 0.875 -1.859375q0 -0.59375 -0.203125 -1.015625q-0.203125 -0.421875 -0.5625 -0.71875q-0.34375 -0.3125 -0.828125 -0.546875q-0.46875 -0.234375 -1.03125 -0.5l-2.25 -0.984375q-0.546875 -0.25 -1.125 -0.578125q-0.578125 -0.34375 -1.03125 -0.8125q-0.453125 -0.484375 -0.75 -1.140625q-0.28125 -0.65625 -0.28125 -1.53125q0 -0.890625 0.359375 -1.65625q0.375 -0.765625 1.03125 -1.328125q0.671875 -0.5625 1.5625 -0.875q0.90625 -0.3125 1.984375 -0.3125q1.421875 0 2.609375 0.546875q1.203125 0.53125 2.046875 1.390625l-1.078125 1.296875q-0.71875 -0.6875 -1.59375 -1.078125q-0.875 -0.40625 -1.984375 -0.40625q-1.3125 0 -2.125 0.609375q-0.796875 0.609375 -0.796875 1.703125q0 0.5625 0.21875 0.96875q0.234375 0.390625 0.609375 0.6875q0.390625 0.296875 0.84375 0.53125q0.453125 0.234375 0.9375 0.421875l2.234375 0.953125q0.671875 0.296875 1.265625 0.671875q0.609375 0.359375 1.03125 0.859375q0.4375 0.484375 0.6875 1.15625q0.25 0.65625 0.25 1.515625q0 0.9375 -0.375 1.765625q-0.359375 0.8125 -1.0625 1.421875q-0.6875 0.609375 -1.671875 0.953125q-0.984375 0.34375 -2.234375 0.34375q-1.65625 0 -3.078125 -0.609375q-1.40625 -0.625 -2.4375 -1.71875l1.1875 -1.390625zm12.4096985 -8.21875l2.0 0l0 7.125q0 1.65625 0.515625 2.390625q0.515625 0.71875 1.65625 0.71875q0.921875 0 1.609375 -0.46875q0.703125 -0.46875 1.546875 -1.5l0 -8.265625l1.96875 0l0 11.65625l-1.640625 0l-0.171875 -1.828125l-0.0625 0q-0.8125 0.96875 -1.71875 1.546875q-0.90625 0.5625 -2.125 0.5625q-1.875 0 -2.734375 -1.140625q-0.84375 -1.15625 -0.84375 -3.40625l0 -7.390625zm13.227844 -5.4375l1.96875 0l0 4.65625l-0.046875 2.125q0.796875 -0.703125 1.71875 -1.171875q0.9375 -0.46875 1.921875 -0.46875q1.125 0 1.984375 0.421875q0.875 0.421875 1.453125 1.203125q0.59375 0.78125 0.890625 1.875q0.3125 1.078125 0.3125 2.421875q0 1.5 -0.40625 2.671875q-0.40625 1.171875 -1.109375 2.0q-0.703125 0.8125 -1.609375 1.234375q-0.90625 0.40625 -1.921875 0.40625q-0.8125 0 -1.6875 -0.359375q-0.875 -0.375 -1.640625 -1.078125l-0.078125 0l-0.171875 1.15625l-1.578125 0l0 -17.09375zm1.96875 14.5q0.765625 0.671875 1.515625 0.953125q0.765625 0.265625 1.34375 0.265625q0.71875 0 1.328125 -0.3125q0.609375 -0.328125 1.046875 -0.90625q0.453125 -0.59375 0.703125 -1.453125q0.25 -0.875 0.25 -1.953125q0 -0.953125 -0.171875 -1.75q-0.15625 -0.796875 -0.53125 -1.359375q-0.375 -0.5625 -0.96875 -0.875q-0.578125 -0.3125 -1.390625 -0.3125q-1.421875 0 -3.125 1.578125l0 6.125zm11.366852 -9.0625l1.96875 0l0 12.96875q0 1.78125 -0.71875 2.828125q-0.71875 1.0625 -2.46875 1.0625q-0.546875 0 -0.96875 -0.09375q-0.4375 -0.09375 -0.75 -0.21875l0.40625 -1.484375q0.203125 0.078125 0.5 0.125q0.28125 0.0625 0.59375 0.0625q0.875 0 1.15625 -0.59375q0.28125 -0.59375 0.28125 -1.6875l0 -12.96875zm1.015625 -2.40625q-0.578125 0 -0.984375 -0.359375q-0.390625 -0.359375 -0.390625 -0.921875q0 -0.5625 0.390625 -0.90625q0.40625 -0.359375 0.984375 -0.359375q0.546875 0 0.9375 0.359375q0.40625 0.34375 0.40625 0.90625q0 0.5625 -0.40625 0.921875q-0.390625 0.359375 -0.9375 0.359375zm4.0373535 8.25q0 -1.4375 0.4375 -2.578125q0.4375 -1.140625 1.171875 -1.921875q0.734375 -0.796875 1.671875 -1.21875q0.9375 -0.421875 1.953125 -0.421875q1.09375 0 1.96875 0.390625q0.875 0.375 1.46875 1.09375q0.59375 0.71875 0.890625 1.734375q0.3125 1.0 0.3125 2.25q0 0.65625 -0.0625 1.078125l-7.875 0q0.125 1.90625 1.15625 3.015625q1.046875 1.09375 2.734375 1.09375q0.84375 0 1.546875 -0.25q0.703125 -0.25 1.359375 -0.65625l0.6875 1.296875q-0.765625 0.46875 -1.703125 0.828125q-0.9375 0.359375 -2.125 0.359375q-1.1875 0 -2.203125 -0.40625q-1.015625 -0.421875 -1.78125 -1.203125q-0.75 -0.78125 -1.1875 -1.90625q-0.421875 -1.140625 -0.421875 -2.578125zm8.15625 -0.890625q0 -1.796875 -0.765625 -2.734375q-0.75 -0.953125 -2.109375 -0.953125q-0.625 0 -1.203125 0.25q-0.5625 0.25 -1.015625 0.71875q-0.453125 0.46875 -0.75 1.15625q-0.296875 0.6875 -0.390625 1.5625l6.234375 0zm3.7477112 0.890625q0 -1.453125 0.453125 -2.59375q0.453125 -1.140625 1.21875 -1.9375q0.765625 -0.796875 1.78125 -1.203125q1.03125 -0.40625 2.15625 -0.40625q1.15625 0 1.984375 0.421875q0.828125 0.421875 1.421875 0.96875l-0.984375 1.28125q-0.53125 -0.46875 -1.09375 -0.75q-0.5625 -0.28125 -1.25 -0.28125q-0.796875 0 -1.46875 0.328125q-0.671875 0.3125 -1.15625 0.921875q-0.46875 0.59375 -0.75 1.421875q-0.28125 0.828125 -0.28125 1.828125q0 1.015625 0.265625 1.828125q0.265625 0.8125 0.734375 1.40625q0.46875 0.59375 1.140625 0.921875q0.671875 0.3125 1.46875 0.3125q0.828125 0 1.515625 -0.34375q0.6875 -0.359375 1.21875 -0.828125l0.890625 1.296875q-0.796875 0.6875 -1.78125 1.09375q-0.96875 0.40625 -2.015625 0.40625q-1.15625 0 -2.171875 -0.40625q-1.0 -0.40625 -1.734375 -1.1875q-0.734375 -0.78125 -1.15625 -1.921875q-0.40625 -1.140625 -0.40625 -2.578125zm12.13147 -4.25l-1.71875 0l0 -1.484375l1.828125 -0.109375l0.234375 -3.265625l1.65625 0l0 3.265625l3.140625 0l0 1.59375l-3.140625 0l0 6.484375q0 1.078125 0.390625 1.671875q0.40625 0.59375 1.40625 0.59375q0.3125 0 0.671875 -0.09375q0.359375 -0.109375 0.65625 -0.21875l0.375 1.484375q-0.484375 0.171875 -1.046875 0.296875q-0.5625 0.125 -1.109375 0.125q-0.9375 0 -1.578125 -0.28125q-0.625 -0.28125 -1.03125 -0.78125q-0.390625 -0.515625 -0.5625 -1.234375q-0.171875 -0.71875 -0.171875 -1.578125l0 -6.46875z" fill-rule="nonzero"></path><path fill="#000000" fill-opacity="0.0" d="m325.5958 299.3386l191.49606 0l0 74.677155l-191.49606 0z" fill-rule="nonzero"></path><path fill="#000000" d="m343.90033 323.09732l2.640625 0q1.84375 0 2.828125 -0.75q0.984375 -0.765625 0.984375 -2.296875q0 -1.5625 -0.984375 -2.1875q-0.984375 -0.625 -2.828125 -0.625l-2.640625 0l0 5.859375zm6.640625 8.28125l-3.78125 -6.640625l-2.859375 0l0 6.640625l-2.0 0l0 -15.75l4.921875 0q1.203125 0 2.21875 0.234375q1.015625 0.234375 1.75 0.765625q0.734375 0.515625 1.140625 1.359375q0.40625 0.84375 0.40625 2.0625q0 1.84375 -0.953125 2.953125q-0.953125 1.109375 -2.5625 1.515625l3.984375 6.859375l-2.265625 0zm4.2564697 -5.8125q0 -1.4375 0.4375 -2.578125q0.4375 -1.140625 1.171875 -1.921875q0.734375 -0.796875 1.671875 -1.21875q0.9375 -0.421875 1.953125 -0.421875q1.09375 0 1.96875 0.390625q0.875 0.375 1.46875 1.09375q0.59375 0.71875 0.890625 1.734375q0.3125 1.0 0.3125 2.25q0 0.65625 -0.0625 1.078125l-7.875 0q0.125 1.90625 1.15625 3.015625q1.046875 1.09375 2.734375 1.09375q0.84375 0 1.546875 -0.25q0.703125 -0.25 1.359375 -0.65625l0.6875 1.296875q-0.765625 0.46875 -1.703125 0.828125q-0.9375 0.359375 -2.125 0.359375q-1.1875 0 -2.203125 -0.40625q-1.015625 -0.421875 -1.78125 -1.203125q-0.75 -0.78125 -1.1875 -1.90625q-0.421875 -1.140625 -0.421875 -2.578125zm8.15625 -0.890625q0 -1.796875 -0.765625 -2.734375q-0.75 -0.953125 -2.109375 -0.953125q-0.625 0 -1.203125 0.25q-0.5625 0.25 -1.015625 0.71875q-0.453125 0.46875 -0.75 1.15625q-0.296875 0.6875 -0.390625 1.5625l6.234375 0zm9.857086 -8.78125q-0.640625 -0.28125 -1.3125 -0.28125q-1.640625 0 -1.640625 2.25l0 1.859375l2.484375 0l0 1.59375l-2.484375 0l0 10.0625l-1.96875 0l0 -10.0625l-1.578125 0l0 -1.484375l1.578125 -0.109375l0 -1.859375q0 -1.796875 0.828125 -2.828125q0.828125 -1.03125 2.59375 -1.03125q0.546875 0 1.03125 0.109375q0.5 0.109375 0.90625 0.28125l-0.4375 1.5zm0.8985901 9.671875q0 -1.4375 0.4375 -2.578125q0.4375 -1.140625 1.171875 -1.921875q0.734375 -0.796875 1.671875 -1.21875q0.9375 -0.421875 1.953125 -0.421875q1.09375 0 1.96875 0.390625q0.875 0.375 1.46875 1.09375q0.59375 0.71875 0.890625 1.734375q0.3125 1.0 0.3125 2.25q0 0.65625 -0.0625 1.078125l-7.875 0q0.125 1.90625 1.15625 3.015625q1.046875 1.09375 2.734375 1.09375q0.84375 0 1.546875 -0.25q0.703125 -0.25 1.359375 -0.65625l0.6875 1.296875q-0.765625 0.46875 -1.703125 0.828125q-0.9375 0.359375 -2.125 0.359375q-1.1875 0 -2.203125 -0.40625q-1.015625 -0.421875 -1.78125 -1.203125q-0.75 -0.78125 -1.1875 -1.90625q-0.421875 -1.140625 -0.421875 -2.578125zm8.15625 -0.890625q0 -1.796875 -0.765625 -2.734375q-0.75 -0.953125 -2.109375 -0.953125q-0.625 0 -1.203125 0.25q-0.5625 0.25 -1.015625 0.71875q-0.453125 0.46875 -0.75 1.15625q-0.296875 0.6875 -0.390625 1.5625l6.234375 0zm4.607086 -4.953125l1.625 0l0.171875 2.109375l0.078125 0q0.59375 -1.109375 1.4375 -1.75q0.859375 -0.65625 1.875 -0.65625q0.6875 0 1.25 0.234375l-0.390625 1.734375q-0.28125 -0.09375 -0.53125 -0.140625q-0.234375 -0.046875 -0.59375 -0.046875q-0.75 0 -1.5625 0.609375q-0.796875 0.59375 -1.390625 2.078125l0 7.484375l-1.96875 0l0 -11.65625zm7.4685974 5.84375q0 -1.4375 0.4375 -2.578125q0.4375 -1.140625 1.171875 -1.921875q0.734375 -0.796875 1.671875 -1.21875q0.9375 -0.421875 1.953125 -0.421875q1.09375 0 1.96875 0.390625q0.875 0.375 1.46875 1.09375q0.59375 0.71875 0.890625 1.734375q0.3125 1.0 0.3125 2.25q0 0.65625 -0.0625 1.078125l-7.875 0q0.125 1.90625 1.15625 3.015625q1.046875 1.09375 2.734375 1.09375q0.84375 0 1.546875 -0.25q0.703125 -0.25 1.359375 -0.65625l0.6875 1.296875q-0.765625 0.46875 -1.703125 0.828125q-0.9375 0.359375 -2.125 0.359375q-1.1875 0 -2.203125 -0.40625q-1.015625 -0.421875 -1.78125 -1.203125q-0.75 -0.78125 -1.1875 -1.90625q-0.421875 -1.140625 -0.421875 -2.578125zm8.15625 -0.890625q0 -1.796875 -0.765625 -2.734375q-0.75 -0.953125 -2.109375 -0.953125q-0.625 0 -1.203125 0.25q-0.5625 0.25 -1.015625 0.71875q-0.453125 0.46875 -0.75 1.15625q-0.296875 0.6875 -0.390625 1.5625l6.234375 0zm4.607086 -4.953125l1.625 0l0.171875 1.671875l0.078125 0q0.84375 -0.84375 1.765625 -1.40625q0.921875 -0.5625 2.140625 -0.5625q1.84375 0 2.6875 1.15625q0.859375 1.15625 0.859375 3.40625l0 7.390625l-1.953125 0l0 -7.125q0 -1.65625 -0.53125 -2.390625q-0.53125 -0.734375 -1.6875 -0.734375q-0.90625 0 -1.609375 0.453125q-0.6875 0.453125 -1.578125 1.34375l0 8.453125l-1.96875 0l0 -11.65625zm13.456085 1.59375l-1.71875 0l0 -1.484375l1.828125 -0.109375l0.234375 -3.265625l1.65625 0l0 3.265625l3.140625 0l0 1.59375l-3.140625 0l0 6.484375q0 1.078125 0.390625 1.671875q0.40625 0.59375 1.40625 0.59375q0.3125 0 0.671875 -0.09375q0.359375 -0.109375 0.65625 -0.21875l0.375 1.484375q-0.484375 0.171875 -1.046875 0.296875q-0.5625 0.125 -1.109375 0.125q-0.9375 0 -1.578125 -0.28125q-0.625 -0.28125 -1.03125 -0.78125q-0.390625 -0.515625 -0.5625 -1.234375q-0.171875 -0.71875 -0.171875 -1.578125l0 -6.46875zm6.940094 12.984375q1.015625 -0.453125 1.578125 -1.203125q0.578125 -0.734375 0.578125 -1.71875q-0.0625 0.03125 -0.234375 0.03125q-0.578125 0 -1.0 -0.34375q-0.421875 -0.359375 -0.421875 -1.03125q0 -0.640625 0.4375 -1.015625q0.4375 -0.375 1.03125 -0.375q0.765625 0 1.203125 0.625q0.453125 0.625 0.453125 1.703125q0 1.5625 -0.84375 2.703125q-0.828125 1.15625 -2.296875 1.78125l-0.484375 -1.15625zm17.667725 -2.640625q-1.484375 0 -2.71875 -0.5625q-1.234375 -0.578125 -2.125 -1.640625q-0.890625 -1.078125 -1.390625 -2.59375q-0.484375 -1.53125 -0.484375 -3.421875q0 -1.90625 0.484375 -3.40625q0.5 -1.5 1.390625 -2.53125q0.890625 -1.046875 2.125 -1.59375q1.234375 -0.5625 2.71875 -0.5625q1.484375 0 2.71875 0.5625q1.234375 0.5625 2.140625 1.609375q0.90625 1.046875 1.390625 2.546875q0.5 1.5 0.5 3.375q0 1.890625 -0.5 3.421875q-0.484375 1.515625 -1.390625 2.59375q-0.90625 1.0625 -2.140625 1.640625q-1.234375 0.5625 -2.71875 0.5625zm0 -1.75q1.0625 0 1.90625 -0.453125q0.859375 -0.453125 1.46875 -1.296875q0.609375 -0.859375 0.9375 -2.046875q0.34375 -1.1875 0.34375 -2.671875q0 -1.46875 -0.34375 -2.640625q-0.328125 -1.1875 -0.9375 -2.0q-0.609375 -0.8125 -1.46875 -1.25q-0.84375 -0.453125 -1.90625 -0.453125q-1.0625 0 -1.921875 0.453125q-0.84375 0.4375 -1.453125 1.25q-0.609375 0.8125 -0.953125 2.0q-0.328125 1.171875 -0.328125 2.640625q0 1.484375 0.328125 2.671875q0.34375 1.1875 0.953125 2.046875q0.609375 0.84375 1.453125 1.296875q0.859375 0.453125 1.921875 0.453125zm9.935974 -15.625l1.96875 0l0 4.65625l-0.046875 2.125q0.796875 -0.703125 1.71875 -1.171875q0.9375 -0.46875 1.921875 -0.46875q1.125 0 1.984375 0.421875q0.875 0.421875 1.453125 1.203125q0.59375 0.78125 0.890625 1.875q0.3125 1.078125 0.3125 2.421875q0 1.5 -0.40625 2.671875q-0.40625 1.171875 -1.109375 2.0q-0.703125 0.8125 -1.609375 1.234375q-0.90625 0.40625 -1.921875 0.40625q-0.8125 0 -1.6875 -0.359375q-0.875 -0.375 -1.640625 -1.078125l-0.078125 0l-0.171875 1.15625l-1.578125 0l0 -17.09375zm1.96875 14.5q0.765625 0.671875 1.515625 0.953125q0.765625 0.265625 1.34375 0.265625q0.71875 0 1.328125 -0.3125q0.609375 -0.328125 1.046875 -0.90625q0.453125 -0.59375 0.703125 -1.453125q0.25 -0.875 0.25 -1.953125q0 -0.953125 -0.171875 -1.75q-0.15625 -0.796875 -0.53125 -1.359375q-0.375 -0.5625 -0.96875 -0.875q-0.578125 -0.3125 -1.390625 -0.3125q-1.421875 0 -3.125 1.578125l0 6.125zm11.366821 -9.0625l1.96875 0l0 12.96875q0 1.78125 -0.71875 2.828125q-0.71875 1.0625 -2.46875 1.0625q-0.546875 0 -0.96875 -0.09375q-0.4375 -0.09375 -0.75 -0.21875l0.40625 -1.484375q0.203125 0.078125 0.5 0.125q0.28125 0.0625 0.59375 0.0625q0.875 0 1.15625 -0.59375q0.28125 -0.59375 0.28125 -1.6875l0 -12.96875zm1.015625 -2.40625q-0.578125 0 -0.984375 -0.359375q-0.390625 -0.359375 -0.390625 -0.921875q0 -0.5625 0.390625 -0.90625q0.40625 -0.359375 0.984375 -0.359375q0.546875 0 0.9375 0.359375q0.40625 0.34375 0.40625 0.90625q0 0.5625 -0.40625 0.921875q-0.390625 0.359375 -0.9375 0.359375zm4.0373535 8.25q0 -1.4375 0.4375 -2.578125q0.4375 -1.140625 1.171875 -1.921875q0.734375 -0.796875 1.671875 -1.21875q0.9375 -0.421875 1.953125 -0.421875q1.09375 0 1.96875 0.390625q0.875 0.375 1.46875 1.09375q0.59375 0.71875 0.890625 1.734375q0.3125 1.0 0.3125 2.25q0 0.65625 -0.0625 1.078125l-7.875 0q0.125 1.90625 1.15625 3.015625q1.046875 1.09375 2.734375 1.09375q0.84375 0 1.546875 -0.25q0.703125 -0.25 1.359375 -0.65625l0.6875 1.296875q-0.765625 0.46875 -1.703125 0.828125q-0.9375 0.359375 -2.125 0.359375q-1.1875 0 -2.203125 -0.40625q-1.015625 -0.421875 -1.78125 -1.203125q-0.75 -0.78125 -1.1875 -1.90625q-0.421875 -1.140625 -0.421875 -2.578125zm8.15625 -0.890625q0 -1.796875 -0.765625 -2.734375q-0.75 -0.953125 -2.109375 -0.953125q-0.625 0 -1.203125 0.25q-0.5625 0.25 -1.015625 0.71875q-0.453125 0.46875 -0.75 1.15625q-0.296875 0.6875 -0.390625 1.5625l6.234375 0zm3.7477112 0.890625q0 -1.453125 0.453125 -2.59375q0.453125 -1.140625 1.21875 -1.9375q0.765625 -0.796875 1.78125 -1.203125q1.03125 -0.40625 2.15625 -0.40625q1.15625 0 1.984375 0.421875q0.828125 0.421875 1.421875 0.96875l-0.984375 1.28125q-0.53125 -0.46875 -1.09375 -0.75q-0.5625 -0.28125 -1.25 -0.28125q-0.796875 0 -1.46875 0.328125q-0.671875 0.3125 -1.15625 0.921875q-0.46875 0.59375 -0.75 1.421875q-0.28125 0.828125 -0.28125 1.828125q0 1.015625 0.265625 1.828125q0.265625 0.8125 0.734375 1.40625q0.46875 0.59375 1.140625 0.921875q0.671875 0.3125 1.46875 0.3125q0.828125 0 1.515625 -0.34375q0.6875 -0.359375 1.21875 -0.828125l0.890625 1.296875q-0.796875 0.6875 -1.78125 1.09375q-0.96875 0.40625 -2.015625 0.40625q-1.15625 0 -2.171875 -0.40625q-1.0 -0.40625 -1.734375 -1.1875q-0.734375 -0.78125 -1.15625 -1.921875q-0.40625 -1.140625 -0.40625 -2.578125zm12.13147 -4.25l-1.71875 0l0 -1.484375l1.828125 -0.109375l0.234375 -3.265625l1.65625 0l0 3.265625l3.140625 0l0 1.59375l-3.140625 0l0 6.484375q0 1.078125 0.390625 1.671875q0.40625 0.59375 1.40625 0.59375q0.3125 0 0.671875 -0.09375q0.359375 -0.109375 0.65625 -0.21875l0.375 1.484375q-0.484375 0.171875 -1.046875 0.296875q-0.5625 0.125 -1.109375 0.125q-0.9375 0 -1.578125 -0.28125q-0.625 -0.28125 -1.03125 -0.78125q-0.390625 -0.515625 -0.5625 -1.234375q-0.171875 -0.71875 -0.171875 -1.578125l0 -6.46875z" fill-rule="nonzero"></path><path fill="#000000" fill-opacity="0.0" d="m0 299.3386l191.49606 0l0 74.677155l-191.49606 0z" fill-rule="nonzero"></path><path fill="#000000" d="m75.979225 327.94107q0.84375 0.890625 1.984375 1.4375q1.140625 0.53125 2.359375 0.53125q1.5625 0 2.421875 -0.703125q0.875 -0.703125 0.875 -1.859375q0 -0.59375 -0.203125 -1.015625q-0.203125 -0.421875 -0.5625 -0.71875q-0.34375 -0.3125 -0.828125 -0.546875q-0.46875 -0.234375 -1.03125 -0.5l-2.25 -0.984375q-0.546875 -0.25 -1.125 -0.578125q-0.578125 -0.34375 -1.03125 -0.8125q-0.453125 -0.484375 -0.75 -1.140625q-0.28125 -0.65625 -0.28125 -1.53125q0 -0.890625 0.359375 -1.65625q0.375 -0.765625 1.03125 -1.328125q0.671875 -0.5625 1.5625 -0.875q0.90625 -0.3125 1.984375 -0.3125q1.421875 0 2.609375 0.546875q1.203125 0.53125 2.046875 1.390625l-1.078125 1.296875q-0.71875 -0.6875 -1.59375 -1.078125q-0.875 -0.40625 -1.984375 -0.40625q-1.3125 0 -2.125 0.609375q-0.796875 0.609375 -0.796875 1.703125q0 0.5625 0.21875 0.96875q0.234375 0.390625 0.609375 0.6875q0.390625 0.296875 0.84375 0.53125q0.453125 0.234375 0.9375 0.421875l2.234375 0.953125q0.671875 0.296875 1.265625 0.671875q0.609375 0.359375 1.03125 0.859375q0.4375 0.484375 0.6875 1.15625q0.25 0.65625 0.25 1.515625q0 0.9375 -0.375 1.765625q-0.359375 0.8125 -1.0625 1.421875q-0.6875 0.609375 -1.671875 0.953125q-0.984375 0.34375 -2.234375 0.34375q-1.65625 0 -3.078125 -0.609375q-1.40625 -0.625 -2.4375 -1.71875l1.1875 -1.390625zm13.581589 -10.625q-0.5625 0 -0.96875 -0.359375q-0.390625 -0.359375 -0.390625 -0.921875q0 -0.5625 0.390625 -0.90625q0.40625 -0.359375 0.96875 -0.359375q0.578125 0 0.96875 0.359375q0.40625 0.34375 0.40625 0.90625q0 0.5625 -0.40625 0.921875q-0.390625 0.359375 -0.96875 0.359375zm-1.0 2.40625l1.96875 0l0 11.65625l-1.96875 0l0 -11.65625zm6.7477264 13.625q0 0.9375 0.890625 1.484375q0.90625 0.5625 2.484375 0.5625q0.84375 0 1.53125 -0.21875q0.6875 -0.203125 1.15625 -0.53125q0.484375 -0.3125 0.75 -0.75q0.265625 -0.421875 0.265625 -0.890625q0 -0.8125 -0.609375 -1.125q-0.59375 -0.3125 -1.75 -0.3125l-2.015625 0q-0.328125 0 -0.734375 -0.03125q-0.390625 -0.03125 -0.765625 -0.15625q-0.625 0.453125 -0.921875 0.953125q-0.28125 0.515625 -0.28125 1.015625zm-1.734375 0.265625q0 -0.75 0.453125 -1.421875q0.453125 -0.671875 1.25 -1.21875l0 -0.09375q-0.421875 -0.265625 -0.734375 -0.734375q-0.296875 -0.46875 -0.296875 -1.171875q0 -0.734375 0.40625 -1.28125q0.40625 -0.5625 0.875 -0.875l0 -0.09375q-0.578125 -0.484375 -1.046875 -1.28125q-0.46875 -0.8125 -0.46875 -1.859375q0 -0.96875 0.34375 -1.734375q0.34375 -0.765625 0.9375 -1.296875q0.609375 -0.546875 1.40625 -0.828125q0.8125 -0.296875 1.703125 -0.296875q0.484375 0 0.890625 0.09375q0.421875 0.078125 0.765625 0.203125l4.046875 0l0 1.5l-2.390625 0q0.40625 0.40625 0.671875 1.03125q0.28125 0.625 0.28125 1.375q0 0.9375 -0.34375 1.703125q-0.328125 0.75 -0.90625 1.265625q-0.5625 0.515625 -1.34375 0.796875q-0.78125 0.28125 -1.671875 0.28125q-0.4375 0 -0.890625 -0.09375q-0.453125 -0.109375 -0.859375 -0.3125q-0.3125 0.265625 -0.53125 0.59375q-0.21875 0.328125 -0.21875 0.796875q0 0.5625 0.421875 0.921875q0.4375 0.359375 1.640625 0.359375l2.265625 0q2.03125 0 3.046875 0.65625q1.03125 0.65625 1.03125 2.125q0 0.8125 -0.421875 1.546875q-0.40625 0.734375 -1.171875 1.28125q-0.765625 0.5625 -1.859375 0.875q-1.09375 0.328125 -2.453125 0.328125q-1.078125 0 -1.96875 -0.203125q-0.890625 -0.203125 -1.53125 -0.609375q-0.625 -0.40625 -0.984375 -0.984375q-0.34375 -0.578125 -0.34375 -1.34375zm4.828125 -7.25q0.5 0 0.9375 -0.1875q0.453125 -0.203125 0.796875 -0.5625q0.34375 -0.359375 0.53125 -0.875q0.203125 -0.515625 0.203125 -1.15625q0 -1.296875 -0.71875 -2.0q-0.71875 -0.71875 -1.75 -0.71875q-1.03125 0 -1.75 0.71875q-0.71875 0.703125 -0.71875 2.0q0 0.640625 0.1875 1.15625q0.1875 0.515625 0.53125 0.875q0.359375 0.359375 0.796875 0.5625q0.453125 0.1875 0.953125 0.1875zm8.158463 -6.640625l1.625 0l0.171875 1.671875l0.078125 0q0.84375 -0.84375 1.765625 -1.40625q0.921875 -0.5625 2.140625 -0.5625q1.84375 0 2.6875 1.15625q0.859375 1.15625 0.859375 3.40625l0 7.390625l-1.953125 0l0 -7.125q0 -1.65625 -0.53125 -2.390625q-0.53125 -0.734375 -1.6875 -0.734375q-0.90625 0 -1.609375 0.453125q-0.6875 0.453125 -1.578125 1.34375l0 8.453125l-1.96875 0l0 -11.65625z" fill-rule="nonzero"></path></g></svg>

