<?xml version="1.0" encoding="UTF-8"?><svg xmlns="http://www.w3.org/2000/svg" xmlns:xlink="http://www.w3.org/1999/xlink" fill-opacity="1" color-rendering="auto" color-interpolation="auto" text-rendering="auto" stroke="black" stroke-linecap="square" width="551" stroke-miterlimit="10" shape-rendering="auto" stroke-opacity="1" fill="black" stroke-dasharray="none" font-weight="normal" stroke-width="1" height="551" font-family="'Dialog'" font-style="normal" stroke-linejoin="miter" font-size="12px" stroke-dashoffset="0" image-rendering="auto">
  <!--Generated by ySVG 2.5-->
  <defs id="genericDefs"/>
  <g>
    <defs id="defs1">
      <clipPath clipPathUnits="userSpaceOnUse" id="clipPath1">
        <path d="M0 0 L551 0 L551 551 L0 551 L0 0 Z"/>
      </clipPath>
      <clipPath clipPathUnits="userSpaceOnUse" id="clipPath2">
        <path d="M-15 -15 L536 -15 L536 536 L-15 536 L-15 -15 Z"/>
      </clipPath>
    </defs>
    <g fill="white" text-rendering="geometricPrecision" shape-rendering="geometricPrecision" transform="translate(15,15)" stroke="white">
      <rect x="-15" width="551" height="551" y="-15" clip-path="url(#clipPath2)" stroke="none"/>
    </g>
    <g fill="silver" text-rendering="geometricPrecision" shape-rendering="geometricPrecision" transform="matrix(1,0,0,1,15,15)" stroke="silver">
      <circle r="15" clip-path="url(#clipPath2)" cx="260.1963" cy="260.1963" stroke="none"/>
    </g>
    <g stroke-linecap="butt" transform="matrix(1,0,0,1,15,15)" fill="gray" text-rendering="geometricPrecision" shape-rendering="geometricPrecision" stroke="gray" stroke-width="5" stroke-miterlimit="1.45">
      <circle fill="none" r="15" clip-path="url(#clipPath2)" cx="260.1963" cy="260.1963"/>
    </g>
    <g fill="silver" text-rendering="geometricPrecision" shape-rendering="geometricPrecision" transform="matrix(1,0,0,1,15,15)" stroke="silver">
      <circle r="15" clip-path="url(#clipPath2)" cx="211.4237" cy="505.3926" stroke="none"/>
    </g>
    <g stroke-linecap="butt" transform="matrix(1,0,0,1,15,15)" fill="gray" text-rendering="geometricPrecision" shape-rendering="geometricPrecision" stroke="gray" stroke-width="5" stroke-miterlimit="1.45">
      <circle fill="none" r="15" clip-path="url(#clipPath2)" cx="211.4237" cy="505.3926"/>
    </g>
    <g fill="silver" text-rendering="geometricPrecision" shape-rendering="geometricPrecision" transform="matrix(1,0,0,1,15,15)" stroke="silver">
      <circle r="15" clip-path="url(#clipPath2)" cx="171.808" cy="348.5847" stroke="none"/>
    </g>
    <g stroke-linecap="butt" transform="matrix(1,0,0,1,15,15)" fill="gray" text-rendering="geometricPrecision" shape-rendering="geometricPrecision" stroke="gray" stroke-width="5" stroke-miterlimit="1.45">
      <circle fill="none" r="15" clip-path="url(#clipPath2)" cx="171.808" cy="348.5847"/>
    </g>
    <g fill="silver" text-rendering="geometricPrecision" shape-rendering="geometricPrecision" transform="matrix(1,0,0,1,15,15)" stroke="silver">
      <circle r="15" clip-path="url(#clipPath2)" cx="121.3038" cy="468.0637" stroke="none"/>
    </g>
    <g stroke-linecap="butt" transform="matrix(1,0,0,1,15,15)" fill="gray" text-rendering="geometricPrecision" shape-rendering="geometricPrecision" stroke="gray" stroke-width="5" stroke-miterlimit="1.45">
      <circle fill="none" r="15" clip-path="url(#clipPath2)" cx="121.3038" cy="468.0637"/>
    </g>
    <g fill="silver" text-rendering="geometricPrecision" shape-rendering="geometricPrecision" transform="matrix(1,0,0,1,15,15)" stroke="silver">
      <circle r="15" clip-path="url(#clipPath2)" cx="15" cy="308.9689" stroke="none"/>
    </g>
    <g stroke-linecap="butt" transform="matrix(1,0,0,1,15,15)" fill="gray" text-rendering="geometricPrecision" shape-rendering="geometricPrecision" stroke="gray" stroke-width="5" stroke-miterlimit="1.45">
      <circle fill="none" r="15" clip-path="url(#clipPath2)" cx="15" cy="308.9689"/>
    </g>
    <g fill="silver" text-rendering="geometricPrecision" shape-rendering="geometricPrecision" transform="matrix(1,0,0,1,15,15)" stroke="silver">
      <circle r="15" clip-path="url(#clipPath2)" cx="52.3289" cy="399.0889" stroke="none"/>
    </g>
    <g stroke-linecap="butt" transform="matrix(1,0,0,1,15,15)" fill="gray" text-rendering="geometricPrecision" shape-rendering="geometricPrecision" stroke="gray" stroke-width="5" stroke-miterlimit="1.45">
      <circle fill="none" r="15" clip-path="url(#clipPath2)" cx="52.3289" cy="399.0889"/>
    </g>
    <g fill="silver" text-rendering="geometricPrecision" shape-rendering="geometricPrecision" transform="matrix(1,0,0,1,15,15)" stroke="silver">
      <circle r="15" clip-path="url(#clipPath2)" cx="15" cy="211.4237" stroke="none"/>
    </g>
    <g stroke-linecap="butt" transform="matrix(1,0,0,1,15,15)" fill="gray" text-rendering="geometricPrecision" shape-rendering="geometricPrecision" stroke="gray" stroke-width="5" stroke-miterlimit="1.45">
      <circle fill="none" r="15" clip-path="url(#clipPath2)" cx="15" cy="211.4237"/>
    </g>
    <g fill="silver" text-rendering="geometricPrecision" shape-rendering="geometricPrecision" transform="matrix(1,0,0,1,15,15)" stroke="silver">
      <circle r="15" clip-path="url(#clipPath2)" cx="171.808" cy="171.808" stroke="none"/>
    </g>
    <g stroke-linecap="butt" transform="matrix(1,0,0,1,15,15)" fill="gray" text-rendering="geometricPrecision" shape-rendering="geometricPrecision" stroke="gray" stroke-width="5" stroke-miterlimit="1.45">
      <circle fill="none" r="15" clip-path="url(#clipPath2)" cx="171.808" cy="171.808"/>
    </g>
    <g fill="silver" text-rendering="geometricPrecision" shape-rendering="geometricPrecision" transform="matrix(1,0,0,1,15,15)" stroke="silver">
      <circle r="15" clip-path="url(#clipPath2)" cx="52.3289" cy="121.3038" stroke="none"/>
    </g>
    <g stroke-linecap="butt" transform="matrix(1,0,0,1,15,15)" fill="gray" text-rendering="geometricPrecision" shape-rendering="geometricPrecision" stroke="gray" stroke-width="5" stroke-miterlimit="1.45">
      <circle fill="none" r="15" clip-path="url(#clipPath2)" cx="52.3289" cy="121.3038"/>
    </g>
    <g fill="silver" text-rendering="geometricPrecision" shape-rendering="geometricPrecision" transform="matrix(1,0,0,1,15,15)" stroke="silver">
      <circle r="15" clip-path="url(#clipPath2)" cx="211.4237" cy="15" stroke="none"/>
    </g>
    <g stroke-linecap="butt" transform="matrix(1,0,0,1,15,15)" fill="gray" text-rendering="geometricPrecision" shape-rendering="geometricPrecision" stroke="gray" stroke-width="5" stroke-miterlimit="1.45">
      <circle fill="none" r="15" clip-path="url(#clipPath2)" cx="211.4237" cy="15"/>
    </g>
    <g fill="silver" text-rendering="geometricPrecision" shape-rendering="geometricPrecision" transform="matrix(1,0,0,1,15,15)" stroke="silver">
      <circle r="15" clip-path="url(#clipPath2)" cx="121.3038" cy="52.3289" stroke="none"/>
    </g>
    <g stroke-linecap="butt" transform="matrix(1,0,0,1,15,15)" fill="gray" text-rendering="geometricPrecision" shape-rendering="geometricPrecision" stroke="gray" stroke-width="5" stroke-miterlimit="1.45">
      <circle fill="none" r="15" clip-path="url(#clipPath2)" cx="121.3038" cy="52.3289"/>
    </g>
    <g fill="silver" text-rendering="geometricPrecision" shape-rendering="geometricPrecision" transform="matrix(1,0,0,1,15,15)" stroke="silver">
      <circle r="15" clip-path="url(#clipPath2)" cx="505.3926" cy="308.9689" stroke="none"/>
    </g>
    <g stroke-linecap="butt" transform="matrix(1,0,0,1,15,15)" fill="gray" text-rendering="geometricPrecision" shape-rendering="geometricPrecision" stroke="gray" stroke-width="5" stroke-miterlimit="1.45">
      <circle fill="none" r="15" clip-path="url(#clipPath2)" cx="505.3926" cy="308.9689"/>
    </g>
    <g fill="silver" text-rendering="geometricPrecision" shape-rendering="geometricPrecision" transform="matrix(1,0,0,1,15,15)" stroke="silver">
      <circle r="15" clip-path="url(#clipPath2)" cx="348.5847" cy="348.5847" stroke="none"/>
    </g>
    <g stroke-linecap="butt" transform="matrix(1,0,0,1,15,15)" fill="gray" text-rendering="geometricPrecision" shape-rendering="geometricPrecision" stroke="gray" stroke-width="5" stroke-miterlimit="1.45">
      <circle fill="none" r="15" clip-path="url(#clipPath2)" cx="348.5847" cy="348.5847"/>
    </g>
    <g fill="silver" text-rendering="geometricPrecision" shape-rendering="geometricPrecision" transform="matrix(1,0,0,1,15,15)" stroke="silver">
      <circle r="15" clip-path="url(#clipPath2)" cx="468.0637" cy="399.0889" stroke="none"/>
    </g>
    <g stroke-linecap="butt" transform="matrix(1,0,0,1,15,15)" fill="gray" text-rendering="geometricPrecision" shape-rendering="geometricPrecision" stroke="gray" stroke-width="5" stroke-miterlimit="1.45">
      <circle fill="none" r="15" clip-path="url(#clipPath2)" cx="468.0637" cy="399.0889"/>
    </g>
    <g fill="silver" text-rendering="geometricPrecision" shape-rendering="geometricPrecision" transform="matrix(1,0,0,1,15,15)" stroke="silver">
      <circle r="15" clip-path="url(#clipPath2)" cx="308.9689" cy="505.3926" stroke="none"/>
    </g>
    <g stroke-linecap="butt" transform="matrix(1,0,0,1,15,15)" fill="gray" text-rendering="geometricPrecision" shape-rendering="geometricPrecision" stroke="gray" stroke-width="5" stroke-miterlimit="1.45">
      <circle fill="none" r="15" clip-path="url(#clipPath2)" cx="308.9689" cy="505.3926"/>
    </g>
    <g fill="silver" text-rendering="geometricPrecision" shape-rendering="geometricPrecision" transform="matrix(1,0,0,1,15,15)" stroke="silver">
      <circle r="15" clip-path="url(#clipPath2)" cx="399.0889" cy="468.0637" stroke="none"/>
    </g>
    <g stroke-linecap="butt" transform="matrix(1,0,0,1,15,15)" fill="gray" text-rendering="geometricPrecision" shape-rendering="geometricPrecision" stroke="gray" stroke-width="5" stroke-miterlimit="1.45">
      <circle fill="none" r="15" clip-path="url(#clipPath2)" cx="399.0889" cy="468.0637"/>
    </g>
    <g fill="silver" text-rendering="geometricPrecision" shape-rendering="geometricPrecision" transform="matrix(1,0,0,1,15,15)" stroke="silver">
      <circle r="15" clip-path="url(#clipPath2)" cx="308.9689" cy="15" stroke="none"/>
    </g>
    <g stroke-linecap="butt" transform="matrix(1,0,0,1,15,15)" fill="gray" text-rendering="geometricPrecision" shape-rendering="geometricPrecision" stroke="gray" stroke-width="5" stroke-miterlimit="1.45">
      <circle fill="none" r="15" clip-path="url(#clipPath2)" cx="308.9689" cy="15"/>
    </g>
    <g fill="silver" text-rendering="geometricPrecision" shape-rendering="geometricPrecision" transform="matrix(1,0,0,1,15,15)" stroke="silver">
      <circle r="15" clip-path="url(#clipPath2)" cx="348.5847" cy="171.808" stroke="none"/>
    </g>
    <g stroke-linecap="butt" transform="matrix(1,0,0,1,15,15)" fill="gray" text-rendering="geometricPrecision" shape-rendering="geometricPrecision" stroke="gray" stroke-width="5" stroke-miterlimit="1.45">
      <circle fill="none" r="15" clip-path="url(#clipPath2)" cx="348.5847" cy="171.808"/>
    </g>
    <g fill="silver" text-rendering="geometricPrecision" shape-rendering="geometricPrecision" transform="matrix(1,0,0,1,15,15)" stroke="silver">
      <circle r="15" clip-path="url(#clipPath2)" cx="399.0889" cy="52.3289" stroke="none"/>
    </g>
    <g stroke-linecap="butt" transform="matrix(1,0,0,1,15,15)" fill="gray" text-rendering="geometricPrecision" shape-rendering="geometricPrecision" stroke="gray" stroke-width="5" stroke-miterlimit="1.45">
      <circle fill="none" r="15" clip-path="url(#clipPath2)" cx="399.0889" cy="52.3289"/>
    </g>
    <g fill="silver" text-rendering="geometricPrecision" shape-rendering="geometricPrecision" transform="matrix(1,0,0,1,15,15)" stroke="silver">
      <circle r="15" clip-path="url(#clipPath2)" cx="505.3926" cy="211.4237" stroke="none"/>
    </g>
    <g stroke-linecap="butt" transform="matrix(1,0,0,1,15,15)" fill="gray" text-rendering="geometricPrecision" shape-rendering="geometricPrecision" stroke="gray" stroke-width="5" stroke-miterlimit="1.45">
      <circle fill="none" r="15" clip-path="url(#clipPath2)" cx="505.3926" cy="211.4237"/>
    </g>
    <g fill="silver" text-rendering="geometricPrecision" shape-rendering="geometricPrecision" transform="matrix(1,0,0,1,15,15)" stroke="silver">
      <circle r="15" clip-path="url(#clipPath2)" cx="468.0637" cy="121.3038" stroke="none"/>
    </g>
    <g stroke-linecap="butt" transform="matrix(1,0,0,1,15,15)" fill="gray" text-rendering="geometricPrecision" shape-rendering="geometricPrecision" stroke="gray" stroke-width="5" stroke-miterlimit="1.45">
      <circle fill="none" r="15" clip-path="url(#clipPath2)" cx="468.0637" cy="121.3038"/>
      <path fill="none" d="M207.7496 490.8496 L175.4821 363.1277" clip-path="url(#clipPath2)" stroke="rgb(153,153,153)"/>
      <path fill="none" d="M182.4146 337.9781 L249.5897 270.8029" clip-path="url(#clipPath2)" stroke="rgb(153,153,153)"/>
      <path fill="none" d="M127.144 454.2474 L165.9677 362.401" clip-path="url(#clipPath2)" stroke="rgb(153,153,153)"/>
      <path fill="none" d="M157.2649 344.9105 L29.5431 312.643" clip-path="url(#clipPath2)" stroke="rgb(153,153,153)"/>
      <path fill="none" d="M66.1453 393.2487 L157.9916 354.4249" clip-path="url(#clipPath2)" stroke="rgb(153,153,153)"/>
      <path fill="none" d="M29.5431 207.7496 L157.2649 175.4821" clip-path="url(#clipPath2)" stroke="rgb(153,153,153)"/>
      <path fill="none" d="M182.4146 182.4146 L249.5897 249.5897" clip-path="url(#clipPath2)" stroke="rgb(153,153,153)"/>
      <path fill="none" d="M66.1453 127.144 L157.9916 165.9677" clip-path="url(#clipPath2)" stroke="rgb(153,153,153)"/>
      <path fill="none" d="M175.4821 157.2649 L207.7496 29.5431" clip-path="url(#clipPath2)" stroke="rgb(153,153,153)"/>
      <path fill="none" d="M127.144 66.1453 L165.9677 157.9916" clip-path="url(#clipPath2)" stroke="rgb(153,153,153)"/>
      <path fill="none" d="M490.8496 312.643 L363.1277 344.9105" clip-path="url(#clipPath2)" stroke="rgb(153,153,153)"/>
      <path fill="none" d="M270.8029 270.8029 L337.9781 337.9781" clip-path="url(#clipPath2)" stroke="rgb(153,153,153)"/>
      <path fill="none" d="M454.2474 393.2487 L362.401 354.4249" clip-path="url(#clipPath2)" stroke="rgb(153,153,153)"/>
      <path fill="none" d="M344.9105 363.1277 L312.643 490.8496" clip-path="url(#clipPath2)" stroke="rgb(153,153,153)"/>
      <path fill="none" d="M393.2487 454.2474 L354.4249 362.401" clip-path="url(#clipPath2)" stroke="rgb(153,153,153)"/>
      <path fill="none" d="M312.643 29.5431 L344.9105 157.2649" clip-path="url(#clipPath2)" stroke="rgb(153,153,153)"/>
      <path fill="none" d="M270.8029 249.5897 L337.9781 182.4146" clip-path="url(#clipPath2)" stroke="rgb(153,153,153)"/>
      <path fill="none" d="M393.2487 66.1453 L354.4249 157.9916" clip-path="url(#clipPath2)" stroke="rgb(153,153,153)"/>
      <path fill="none" d="M363.1277 175.4821 L490.8496 207.7496" clip-path="url(#clipPath2)" stroke="rgb(153,153,153)"/>
      <path fill="none" d="M454.2474 127.144 L362.401 165.9677" clip-path="url(#clipPath2)" stroke="rgb(153,153,153)"/>
    </g>
  </g>
</svg>
